<svg width="14" height="13" viewBox="0 0 14 13" fill="none" xmlns="http://www.w3.org/2000/svg">
<path d="M13.9695 6.3786C13.969 5.95289 13.7997 5.54475 13.4987 5.24373C13.1977 4.94271 12.7895 4.7734 12.3638 4.77296C11.974 4.7725 11.5975 4.91496 11.3056 5.17338C10.2437 4.49387 8.82688 4.06579 7.26413 4.01952L8.22046 0.74897L10.5683 1.18523C10.5683 1.20442 10.5643 1.22248 10.5654 1.24167C10.5794 1.5103 10.6994 1.76242 10.8991 1.9427C11.0987 2.12299 11.3617 2.21673 11.6304 2.20336C11.899 2.18927 12.151 2.06925 12.3313 1.86961C12.5115 1.66997 12.6052 1.40701 12.5918 1.13839C12.5778 0.869751 12.4578 0.617639 12.2582 0.437353C12.0585 0.257068 11.7955 0.163327 11.5268 0.176694C11.3557 0.185804 11.1897 0.238223 11.0443 0.329039C10.8989 0.419855 10.779 0.546092 10.6958 0.695918L10.695 0.695636L7.86575 0.169922L6.73898 4.01895C5.17228 4.06043 3.7509 4.48625 2.68452 5.16435C2.39388 4.91145 2.02146 4.7724 1.63619 4.77296C1.21051 4.77348 0.802411 4.94281 0.501408 5.24381C0.200404 5.54482 0.0310708 5.95292 0.0305481 6.3786C0.0305481 6.92604 0.312453 7.43116 0.769031 7.72576C0.740494 7.88693 0.72586 8.05026 0.725292 8.21394C0.725292 10.5313 3.53475 12.4168 6.98815 12.4168C10.4416 12.4168 13.2504 10.5313 13.2504 8.21366C13.2504 8.05338 13.2358 7.89535 13.2095 7.73959C13.4413 7.59591 13.6327 7.39557 13.7656 7.15745C13.8985 6.91934 13.9685 6.65129 13.9692 6.3786H13.9695ZM4.01164 7.47123C4.01168 7.34166 4.03724 7.21336 4.08686 7.09367C4.13647 6.97397 4.20918 6.86523 4.30083 6.77363C4.39248 6.68204 4.50127 6.60939 4.62099 6.55984C4.74071 6.51029 4.86902 6.48481 4.99859 6.48484C5.12816 6.48488 5.25646 6.51044 5.37615 6.56006C5.49584 6.60968 5.60459 6.68238 5.69619 6.77403C5.78778 6.86568 5.86043 6.97447 5.90998 7.09419C5.95953 7.21391 5.98501 7.34222 5.98497 7.47179C5.9849 7.73347 5.88088 7.9844 5.69579 8.16939C5.5107 8.35437 5.25971 8.45825 4.99803 8.45818C4.73635 8.4581 4.48541 8.35408 4.30043 8.16899C4.11545 7.9839 4.01157 7.73291 4.01164 7.47123ZM9.31393 10.1402C9.28459 10.1706 8.57658 10.8911 6.97658 10.8911C5.36811 10.8911 4.72473 10.1608 4.69848 10.1297C4.6578 10.0787 4.63843 10.014 4.64444 9.94907C4.65045 9.88414 4.68138 9.82405 4.73072 9.78142C4.78007 9.73879 4.84401 9.71692 4.90913 9.72041C4.97425 9.72389 5.03549 9.75246 5.08 9.80012C5.09468 9.81592 5.63139 10.3868 6.9763 10.3868C8.3449 10.3868 8.94483 9.7956 8.95104 9.78996C8.99845 9.74662 9.06058 9.72297 9.12481 9.72383C9.18903 9.72468 9.25052 9.74997 9.29675 9.79455C9.34299 9.83914 9.3705 9.89966 9.37369 9.96381C9.37689 10.028 9.35552 10.0909 9.31393 10.1399V10.1402ZM9.11781 8.45803C8.98826 8.45809 8.85997 8.43263 8.74026 8.3831C8.62054 8.33358 8.51176 8.26096 8.42011 8.16939C8.32846 8.07782 8.25575 7.9691 8.20612 7.84943C8.15649 7.72976 8.13092 7.60148 8.13087 7.47193C8.13081 7.34238 8.15627 7.21409 8.2058 7.09437C8.25532 6.97466 8.32794 6.86588 8.41951 6.77423C8.51108 6.68258 8.6198 6.60987 8.73947 6.56024C8.85914 6.51061 8.98742 6.48504 9.11697 6.48498C9.37861 6.48487 9.62958 6.5887 9.81467 6.77363C9.99976 6.95856 10.1038 7.20944 10.1039 7.47109C10.104 7.73273 10.0002 7.9837 9.81527 8.16879C9.63034 8.35388 9.37946 8.45792 9.11781 8.45803Z" fill="#111111"/>
</svg>
