<svg width="170" height="48" viewBox="0 0 170 48" fill="none" xmlns="http://www.w3.org/2000/svg">
<mask id="mask0_309_99" style="mask-type:luminance" maskUnits="userSpaceOnUse" x="0" y="0" width="17" height="36">
<path d="M0 0.0804443H16.7735V35.0686H0V0.0804443Z" fill="white"/>
</mask>
<g mask="url(#mask0_309_99)">
<path fill-rule="evenodd" clip-rule="evenodd" d="M16.7735 35.0686H-0.0289612V19.8593C-0.0289612 19.1055 0.58354 18.4944 1.33939 18.4944H15.4057C16.161 18.4944 16.7735 19.1055 16.7735 19.8593V35.0686Z" fill="white"/>
</g>
<mask id="mask1_309_99" style="mask-type:luminance" maskUnits="userSpaceOnUse" x="0" y="0" width="17" height="36">
<path d="M0 0.0804443H16.7735V35.0686H0V0.0804443Z" fill="white"/>
</mask>
<g mask="url(#mask1_309_99)">
<path fill-rule="evenodd" clip-rule="evenodd" d="M8.36265 3.45076C5.60326 3.45076 3.3579 5.69122 3.3579 8.44459C3.3579 11.198 5.60326 13.4384 8.36265 13.4384C11.1225 13.4384 13.3679 11.198 13.3679 8.44459C13.3679 5.69122 11.1225 3.45076 8.36265 3.45076ZM8.36265 16.8092C3.74065 16.8092 -0.0202637 13.057 -0.0202637 8.44459C-0.0202637 3.83268 3.74065 0.0804443 8.36265 0.0804443C12.9851 0.0804443 16.7456 3.83268 16.7456 8.44459C16.7456 13.057 12.9851 16.8092 8.36265 16.8092Z" fill="white"/>
</g>
<path fill-rule="evenodd" clip-rule="evenodd" d="M26.7864 0C26.7864 0 25.9839 0.0418858 25.9555 0.0447745C25.8876 0.0519962 25.8193 0.0596994 25.7515 0.067884C25.6167 0.085216 25.482 0.105918 25.3483 0.129509C25.0836 0.176691 24.8209 0.237353 24.562 0.311014C24.053 0.455448 23.5574 0.649953 23.0844 0.891157C22.6182 1.12947 22.1736 1.41256 21.7593 1.7361C21.347 2.0577 20.9644 2.41879 20.618 2.81309C20.2711 3.20788 19.9603 3.63588 19.6918 4.09037C19.4209 4.54871 19.1928 5.03352 19.0124 5.53615C18.8281 6.04889 18.6934 6.57945 18.6101 7.11867C18.5274 7.655 18.5067 8.1947 18.5067 8.73633C18.5067 8.96983 18.5067 9.20285 18.5067 9.43587C18.5067 9.76855 18.5067 10.1012 18.5067 10.4339C18.5067 10.8301 18.5067 11.2269 18.5067 11.6231C18.5067 12.0487 18.5067 12.4738 18.5067 12.8989C18.5067 13.3178 18.5067 13.7361 18.5067 14.155C18.5067 14.5315 18.5067 14.908 18.5067 15.2845C18.5067 15.5835 18.5067 15.8829 18.5067 16.1819C18.5067 16.3687 18.5067 16.555 18.5067 16.7413C18.5067 16.7861 18.5067 16.8309 18.5067 16.8757H26.7864C26.8947 16.8757 27.6097 16.8319 27.6838 16.8237C27.7742 16.814 27.8652 16.8025 27.9556 16.7895C28.1346 16.7635 28.3136 16.7317 28.4907 16.6942C28.84 16.6195 29.185 16.5218 29.5223 16.4014C30.1848 16.165 30.8171 15.842 31.3993 15.4429C31.9757 15.0481 32.5035 14.5787 32.9659 14.0501C33.425 13.5262 33.8325 12.922 34.1472 12.3C34.444 11.7131 34.7376 11.1084 34.9161 10.4729C35.1018 9.81332 35.1374 9.11908 35.1653 8.43783V0H26.7864Z" fill="white"/>
<path fill-rule="evenodd" clip-rule="evenodd" d="M26.836 18.5164C22.2432 18.5164 18.5067 22.2489 18.5067 26.8368C18.5067 31.4246 22.2432 35.1576 26.836 35.1576C31.4287 35.1576 35.1653 31.4246 35.1653 26.8368C35.1653 22.2489 31.4287 18.5164 26.836 18.5164Z" fill="white"/>
<path fill-rule="evenodd" clip-rule="evenodd" d="M42.6095 8.40448H44.8343C45.3146 8.40448 45.7324 8.38374 46.0881 8.34129C46.4443 8.29885 46.738 8.21203 46.9701 8.08132C47.2012 7.95013 47.3747 7.76347 47.4905 7.52231C47.6068 7.28115 47.664 6.96185 47.664 6.56393C47.664 6.1829 47.6 5.87614 47.471 5.64318C47.3425 5.4107 47.1582 5.23079 46.9188 5.10394C46.6779 4.97661 46.3911 4.89027 46.0569 4.84349C45.7217 4.79718 45.3488 4.77355 44.9374 4.77355H42.6095V8.40448ZM42.6095 4.03753H44.8221C45.276 4.03753 45.6581 3.99942 45.966 3.92273C46.2753 3.84701 46.5235 3.73463 46.7126 3.58655C46.9012 3.43848 47.0361 3.25664 47.1182 3.04056C47.1993 2.82497 47.2403 2.57705 47.2403 2.29779C47.2403 2.01032 47.1924 1.76675 47.0981 1.56803C47.0033 1.36883 46.8538 1.20822 46.6486 1.08571C46.4424 0.962717 46.1741 0.873969 45.8438 0.818984C45.514 0.764 45.1089 0.736025 44.6291 0.736025H42.6095V4.03753ZM41.7349 9.14098V0H45.0786C45.6195 0 46.0828 0.0549848 46.4683 0.164954C46.8538 0.274924 47.1695 0.431679 47.4138 0.634737C47.6581 0.837795 47.836 1.08137 47.9474 1.36497C48.0593 1.64858 48.1145 1.95968 48.1145 2.29779C48.1145 2.6195 48.0715 2.89683 47.9855 3.12931C47.8995 3.36227 47.7891 3.55713 47.6518 3.7134C47.514 3.87016 47.3576 3.99267 47.1822 4.08142C47.0063 4.17065 46.824 4.2319 46.6354 4.26566V4.29123C47.2784 4.38432 47.7563 4.63416 48.0695 5.04027C48.3828 5.44687 48.5391 5.95428 48.5391 6.56393C48.5391 7.03806 48.4639 7.43983 48.3139 7.77022C48.1638 8.10013 47.9562 8.36685 47.6899 8.56991C47.4245 8.77297 47.1045 8.91912 46.7317 9.00786C46.3583 9.09661 45.9538 9.14098 45.5164 9.14098H41.7349Z" fill="white"/>
<path fill-rule="evenodd" clip-rule="evenodd" d="M50.9737 9.14101H50.1815V2.5225H50.9737V3.76174H51.0003C51.22 3.23362 51.5034 2.86568 51.8516 2.65647C52.1992 2.44823 52.6593 2.34387 53.2317 2.34387V3.1744C52.7827 3.16566 52.413 3.23362 52.1225 3.37876C51.832 3.52341 51.6008 3.71951 51.4292 3.96658C51.2571 4.21366 51.1387 4.5049 51.0725 4.84177C51.0063 5.17816 50.9737 5.52959 50.9737 5.89559V9.14101Z" fill="white"/>
<path fill-rule="evenodd" clip-rule="evenodd" d="M54.448 9.14098H55.3012V2.56451H54.448V9.14098ZM54.4048 1.13008H55.3434V0H54.4048V1.13008Z" fill="white"/>
<path fill-rule="evenodd" clip-rule="evenodd" d="M59.5666 9.22134C59.4711 9.2384 59.3453 9.26813 59.1888 9.31101C59.0323 9.3539 58.8585 9.37534 58.6678 9.37534C58.2766 9.37534 57.9784 9.27885 57.7744 9.08683C57.5703 8.89434 57.4683 8.55027 57.4683 8.05416V3.19197H56.5165V2.55063H57.4683V0.703125H58.2503V2.55063H59.5151V3.19197H58.2503V7.74616C58.2503 7.90845 58.2548 8.04978 58.2632 8.16917C58.2721 8.28906 58.2978 8.3875 58.3414 8.4645C58.3845 8.5415 58.4524 8.59706 58.5435 8.63117C58.6346 8.66529 58.7629 8.68283 58.9283 8.68283C59.0323 8.68283 59.1388 8.67406 59.2472 8.657C59.3562 8.63994 59.4626 8.6185 59.5666 8.59267V9.22134Z" fill="white"/>
<path fill-rule="evenodd" clip-rule="evenodd" d="M60.7825 9.14098H61.6362V2.56451H60.7825V9.14098ZM60.7398 1.13008H61.6783V0H60.7398V1.13008Z" fill="white"/>
<path fill-rule="evenodd" clip-rule="evenodd" d="M64.0922 7.1087C64.2104 7.68405 64.4233 8.08964 64.731 8.32546C65.0391 8.56177 65.4798 8.68017 66.0533 8.68017C66.3316 8.68017 66.5719 8.64543 66.7743 8.57694C66.9771 8.50796 67.1434 8.41598 67.2741 8.30002C67.4054 8.18407 67.5044 8.05344 67.5717 7.90715C67.639 7.76136 67.6726 7.60675 67.6726 7.44334C67.6726 7.1175 67.5693 6.87483 67.3631 6.71583C67.1559 6.55731 66.8968 6.43255 66.5849 6.34253C66.2724 6.2525 65.935 6.17471 65.5726 6.11062C65.2097 6.04604 64.8723 5.94966 64.5603 5.82098C64.2479 5.69231 63.9888 5.50737 63.7826 5.26715C63.5755 5.02693 63.4721 4.68739 63.4721 4.24951C63.4721 3.69176 63.6726 3.23431 64.0734 2.87814C64.4738 2.52196 65.0415 2.34387 65.775 2.34387C66.4839 2.34387 67.0593 2.50435 67.502 2.82676C67.9452 3.14869 68.2124 3.68736 68.3056 4.44276H67.5337C67.4664 3.92758 67.2741 3.56504 66.9579 3.35467C66.6416 3.14429 66.2431 3.0391 65.7625 3.0391C65.2818 3.0391 64.9146 3.14429 64.6618 3.35467C64.4084 3.56504 64.282 3.84196 64.282 4.18493C64.282 4.48582 64.3849 4.71528 64.5921 4.87428C64.7987 5.03329 65.0578 5.16196 65.3702 5.26079C65.6822 5.35913 66.0196 5.44768 66.3825 5.5245C66.7449 5.6018 67.0824 5.71139 67.3943 5.85328C67.7067 5.99467 67.9658 6.18597 68.1725 6.42619C68.3792 6.66641 68.4825 7.00155 68.4825 7.43062C68.4825 7.74864 68.4148 8.02947 68.2802 8.27409C68.1451 8.51872 67.9596 8.72274 67.7236 8.88566C67.4876 9.04907 67.2069 9.17138 66.8824 9.25309C66.5575 9.3343 66.2008 9.3754 65.8129 9.3754C65.4246 9.3754 65.0814 9.31718 64.7819 9.20122C64.4825 9.08576 64.2268 8.9248 64.0162 8.71833C63.8052 8.51236 63.6413 8.27214 63.5226 7.99718C63.4043 7.72271 63.3375 7.42671 63.3207 7.1087H64.0922Z" fill="white"/>
<path fill-rule="evenodd" clip-rule="evenodd" d="M69.8903 9.14098V0H70.6437V3.47851C70.9452 3.1568 71.2572 2.8949 71.5793 2.69136C71.9018 2.4883 72.2892 2.38702 72.741 2.38702C73.1432 2.38702 73.5154 2.45647 73.8589 2.59634C74.2019 2.73574 74.4911 2.97931 74.7253 3.32658C74.8842 3.5634 74.9782 3.80697 75.0082 4.05634C75.0369 4.30618 75.0521 4.56615 75.0521 4.83722V9.14098H74.2988V4.84976C74.2988 4.25746 74.1685 3.81324 73.909 3.51662C73.6495 3.22047 73.2186 3.0724 72.6156 3.0724C72.3813 3.0724 72.1676 3.10857 71.9748 3.18044C71.7825 3.2523 71.6089 3.3478 71.4543 3.46597C71.2987 3.58462 71.1671 3.71967 71.0583 3.87209C70.9495 4.0245 70.8655 4.1856 70.8068 4.35441C70.7319 4.56615 70.6857 4.76969 70.669 4.96407C70.6523 5.15893 70.6437 5.37018 70.6437 5.5988V9.14098H69.8903Z" fill="white"/>
<path fill-rule="evenodd" clip-rule="evenodd" d="M107.431 47.1112V37.9702H113.297V38.7062H108.291V42.0073H112.841V42.7438H108.291V47.1112H107.431Z" fill="white"/>
<path fill-rule="evenodd" clip-rule="evenodd" d="M119.287 43.8303C119.287 43.435 119.245 43.0661 119.161 42.7227C119.076 42.3792 118.944 42.0808 118.766 41.8273C118.589 41.5744 118.36 41.3748 118.08 41.2285C117.801 41.0827 117.457 41.0098 117.051 41.0098C116.652 41.0098 116.311 41.0891 116.027 41.2476C115.744 41.4066 115.513 41.617 115.335 41.8787C115.157 42.141 115.025 42.4414 114.941 42.7804C114.856 43.1195 114.814 43.4693 114.814 43.8303C114.814 44.2418 114.863 44.6224 114.96 44.9698C115.058 45.3177 115.2 45.6161 115.386 45.8651C115.572 46.1142 115.805 46.3069 116.085 46.4444C116.365 46.5819 116.686 46.6504 117.051 46.6504C117.449 46.6504 117.79 46.5711 118.074 46.4121C118.358 46.2536 118.589 46.0408 118.766 45.7746C118.944 45.5085 119.076 45.2081 119.161 44.8729C119.245 44.5383 119.287 44.1909 119.287 43.8303ZM117.051 47.3456C116.627 47.3368 116.231 47.26 115.863 47.1137C115.494 46.9684 115.172 46.7492 114.897 46.4576C114.621 46.1655 114.403 45.8006 114.242 45.3622C114.081 44.9248 114 44.414 114 43.8303C114 43.3411 114.064 42.8836 114.192 42.4585C114.318 42.0338 114.509 41.6625 114.763 41.3445C115.018 41.0269 115.335 40.7755 115.716 40.591C116.098 40.4066 116.542 40.3141 117.051 40.3141C117.567 40.3141 118.017 40.4066 118.398 40.591C118.779 40.7755 119.097 41.0245 119.351 41.3381C119.605 41.6512 119.794 42.0226 119.917 42.4521C120.039 42.8812 120.101 43.3411 120.101 43.8303C120.101 44.3622 120.029 44.8431 119.885 45.2727C119.741 45.7017 119.535 46.0711 119.268 46.3798C119.002 46.689 118.68 46.9273 118.302 47.0946C117.926 47.2619 117.509 47.3456 117.051 47.3456Z" fill="white"/>
<path fill-rule="evenodd" clip-rule="evenodd" d="M125.917 40.5485H126.67V47.167H125.917V46.2466C125.816 46.3665 125.703 46.4893 125.578 46.6175C125.452 46.7456 125.307 46.8626 125.145 46.9689C124.981 47.0752 124.791 47.165 124.573 47.2369C124.355 47.3097 124.104 47.3456 123.819 47.3456C123.384 47.3456 123.02 47.284 122.727 47.1607C122.434 47.0369 122.198 46.8646 122.017 46.6432C121.837 46.4219 121.707 46.1641 121.628 45.87C121.548 45.5763 121.509 45.2545 121.509 44.9055V40.5485H122.262V44.8924C122.262 45.4632 122.392 45.9001 122.652 46.2025C122.911 46.5049 123.338 46.6558 123.933 46.6558C124.242 46.6558 124.521 46.5942 124.768 46.4704C125.014 46.3471 125.222 46.1748 125.389 45.953C125.557 45.7316 125.686 45.4676 125.779 45.1608C125.871 44.854 125.917 44.5181 125.917 44.1516V40.5485Z" fill="white"/>
<path fill-rule="evenodd" clip-rule="evenodd" d="M129.301 47.1112H128.547V40.4932H129.301V41.413C129.602 41.0897 129.914 40.8252 130.236 40.6208C130.559 40.4165 130.946 40.3141 131.398 40.3141C131.8 40.3141 132.172 40.385 132.516 40.5252C132.859 40.666 133.148 40.9106 133.382 41.2596C133.541 41.4979 133.635 41.743 133.665 41.9944C133.694 42.2459 133.709 42.508 133.709 42.7798V47.1112H132.955V42.7924C132.955 42.1968 132.826 41.7493 132.566 41.4513C132.307 41.1533 131.876 41.0043 131.273 41.0043C131.038 41.0043 130.825 41.0402 130.632 41.113C130.44 41.1853 130.266 41.2809 130.111 41.3999C129.956 41.5193 129.824 41.6557 129.715 41.809C129.607 41.9624 129.523 42.1245 129.464 42.2944C129.389 42.508 129.343 42.7118 129.326 42.9079C129.309 43.104 129.301 43.3171 129.301 43.5467V47.1112Z" fill="white"/>
<path fill-rule="evenodd" clip-rule="evenodd" d="M140.683 43.8332C140.683 43.4581 140.632 43.1029 140.529 42.7666C140.427 42.4303 140.279 42.1367 140.087 41.8849C139.895 41.634 139.66 41.4336 139.382 41.2851C139.104 41.1356 138.791 41.0614 138.44 41.0614C138.039 41.0614 137.693 41.14 137.402 41.2972C137.112 41.4549 136.873 41.6704 136.685 41.9426C136.497 42.2153 136.36 42.5322 136.275 42.8942C136.189 43.2562 136.154 43.6459 136.172 44.0627C136.172 44.4806 136.23 44.8489 136.345 45.1682C136.46 45.487 136.62 45.7578 136.825 45.9791C137.03 46.2008 137.269 46.3683 137.543 46.4837C137.817 46.5988 138.116 46.656 138.44 46.656C138.799 46.656 139.119 46.5837 139.401 46.4391C139.684 46.294 139.918 46.096 140.107 45.8446C140.294 45.5938 140.437 45.2953 140.536 44.9508C140.634 44.6062 140.683 44.2336 140.683 43.8332ZM140.683 37.9702H141.452V47.167H140.683V46.0043H140.657C140.546 46.2261 140.403 46.4197 140.228 46.5861C140.053 46.7516 139.861 46.8904 139.652 47.001C139.442 47.1117 139.227 47.1966 139.004 47.2563C138.782 47.3155 138.564 47.3456 138.351 47.3456C137.813 47.3456 137.355 47.2563 136.98 47.0772C136.603 46.8987 136.294 46.6541 136.05 46.343C135.807 46.0324 135.629 45.6641 135.519 45.2381C135.407 44.8125 135.352 44.3568 135.352 43.8716C135.352 43.4115 135.412 42.969 135.531 42.5434C135.651 42.1173 135.832 41.7446 136.076 41.4253C136.319 41.106 136.627 40.8503 136.999 40.6591C137.371 40.4669 137.808 40.3713 138.312 40.3713C138.782 40.3713 139.233 40.4761 139.664 40.6848C140.096 40.893 140.435 41.2016 140.683 41.6107V37.9702Z" fill="white"/>
<path fill-rule="evenodd" clip-rule="evenodd" d="M147.657 43.6625C147.34 43.8 147.02 43.8905 146.694 43.9331C146.37 43.9761 146.044 44.0104 145.72 44.0358C145.144 44.0789 144.696 44.2124 144.376 44.4355C144.055 44.6586 143.895 44.9977 143.895 45.4527C143.895 45.6587 143.934 45.8368 144.013 45.9875C144.093 46.1372 144.197 46.2619 144.326 46.3603C144.455 46.4591 144.605 46.5325 144.775 46.5799C144.946 46.6269 145.12 46.6504 145.295 46.6504C145.595 46.6504 145.886 46.6117 146.17 46.5344C146.453 46.4576 146.705 46.3392 146.926 46.1802C147.147 46.0217 147.324 45.8196 147.457 45.575C147.59 45.3304 147.657 45.0407 147.657 44.7061V43.6625ZM146.395 43.2765C146.536 43.2594 146.705 43.2335 146.901 43.1992C147.097 43.1645 147.257 43.1175 147.382 43.0573C147.507 42.9971 147.584 42.8964 147.613 42.7545C147.643 42.6131 147.657 42.4825 147.657 42.3621C147.657 41.9673 147.534 41.6429 147.288 41.3895C147.043 41.1365 146.628 41.0098 146.044 41.0098C145.786 41.0098 145.549 41.0333 145.332 41.0803C145.115 41.1277 144.926 41.2094 144.763 41.3249C144.601 41.4413 144.467 41.5954 144.363 41.7892C144.259 41.9819 144.19 42.2246 144.157 42.5162H143.395C143.42 42.1214 143.507 41.7848 143.657 41.5054C143.807 41.2265 144.001 40.9986 144.238 40.8229C144.476 40.6473 144.751 40.5181 145.063 40.4364C145.376 40.3552 145.707 40.3141 146.057 40.3141C146.382 40.3141 146.688 40.3508 146.976 40.4237C147.263 40.4966 147.513 40.6125 147.726 40.7715C147.939 40.9305 148.105 41.1429 148.226 41.4085C148.347 41.6752 148.407 42.001 148.407 42.3875V46.0193C148.407 46.3197 148.459 46.5109 148.563 46.5927C148.668 46.6744 148.878 46.6548 149.195 46.5344V47.1396C149.136 47.1568 149.051 47.1827 148.938 47.2169C148.826 47.2512 148.715 47.2688 148.607 47.2688C148.49 47.2688 148.377 47.2556 148.27 47.2301C148.144 47.213 148.045 47.1719 147.97 47.1078C147.895 47.0433 147.834 46.966 147.788 46.8759C147.742 46.7859 147.711 46.6866 147.695 46.5799C147.678 46.4723 147.669 46.3588 147.669 46.2379C147.353 46.599 146.99 46.8735 146.582 47.0623C146.174 47.2512 145.732 47.3456 145.257 47.3456C144.973 47.3456 144.701 47.307 144.438 47.2301C144.176 47.1528 143.944 47.0325 143.745 46.8691C143.545 46.7062 143.386 46.5065 143.27 46.2707C143.152 46.0344 143.094 45.7531 143.094 45.4268C143.094 44.2937 143.849 43.6244 145.357 43.4179L146.395 43.2765Z" fill="white"/>
<path fill-rule="evenodd" clip-rule="evenodd" d="M152.714 47.192C152.618 47.2091 152.492 47.2383 152.336 47.2817C152.18 47.3241 152.006 47.3456 151.815 47.3456C151.424 47.3456 151.126 47.2495 150.922 47.057C150.717 46.865 150.615 46.5204 150.615 46.0243V41.1623H149.664V40.5209H150.615V38.6733H151.398V40.5209H152.662V41.1623H151.398V45.7163C151.398 45.8791 151.402 46.0199 151.411 46.1398C151.419 46.2602 151.445 46.3581 151.489 46.4352C151.532 46.5117 151.6 46.5672 151.69 46.6018C151.782 46.6359 151.91 46.653 152.076 46.653C152.18 46.653 152.286 46.6447 152.395 46.6272C152.504 46.6101 152.61 46.5887 152.714 46.5633V47.192Z" fill="white"/>
<path fill-rule="evenodd" clip-rule="evenodd" d="M154.165 47.1112H155.018V40.5347H154.165V47.1112ZM154.122 39.1003H155.06V37.9702H154.122V39.1003Z" fill="white"/>
<path fill-rule="evenodd" clip-rule="evenodd" d="M161.755 43.8303C161.755 43.435 161.713 43.0661 161.629 42.7227C161.544 42.3792 161.413 42.0808 161.234 41.8273C161.056 41.5744 160.828 41.3748 160.548 41.2285C160.268 41.0827 159.925 41.0098 159.519 41.0098C159.12 41.0098 158.779 41.0891 158.496 41.2476C158.212 41.4066 157.981 41.617 157.803 41.8787C157.625 42.141 157.493 42.4414 157.409 42.7804C157.324 43.1195 157.282 43.4693 157.282 43.8303C157.282 44.2418 157.331 44.6224 157.428 44.9698C157.526 45.3177 157.668 45.6161 157.853 45.8651C158.04 46.1142 158.273 46.3069 158.553 46.4444C158.833 46.5819 159.154 46.6504 159.519 46.6504C159.917 46.6504 160.258 46.5711 160.542 46.4121C160.826 46.2536 161.056 46.0408 161.234 45.7746C161.413 45.5085 161.544 45.2081 161.629 44.8729C161.713 44.5383 161.755 44.1909 161.755 43.8303ZM159.519 47.3456C159.095 47.3368 158.699 47.26 158.33 47.1137C157.962 46.9684 157.64 46.7492 157.365 46.4576C157.089 46.1655 156.871 45.8006 156.71 45.3622C156.549 44.9248 156.468 44.414 156.468 43.8303C156.468 43.3411 156.532 42.8836 156.659 42.4585C156.786 42.0338 156.977 41.6625 157.231 41.3445C157.485 41.0269 157.803 40.7755 158.184 40.591C158.566 40.4066 159.01 40.3141 159.519 40.3141C160.035 40.3141 160.485 40.4066 160.866 40.591C161.247 40.7755 161.565 41.0245 161.819 41.3381C162.073 41.6512 162.261 42.0226 162.385 42.4521C162.507 42.8812 162.569 43.3411 162.569 43.8303C162.569 44.3622 162.497 44.8431 162.353 45.2727C162.208 45.7017 162.003 46.0711 161.736 46.3798C161.47 46.689 161.148 46.9273 160.77 47.0946C160.393 47.2619 159.976 47.3456 159.519 47.3456Z" fill="white"/>
<path fill-rule="evenodd" clip-rule="evenodd" d="M164.73 47.1112H163.976V40.4932H164.73V41.413C165.031 41.0897 165.343 40.8252 165.665 40.6208C165.988 40.4165 166.375 40.3141 166.827 40.3141C167.229 40.3141 167.601 40.385 167.945 40.5252C168.288 40.666 168.577 40.9106 168.811 41.2596C168.97 41.4979 169.065 41.743 169.094 41.9944C169.123 42.2459 169.138 42.508 169.138 42.7798V47.1112H168.385V42.7924C168.385 42.1968 168.254 41.7493 167.995 41.4513C167.735 41.1533 167.304 41.0043 166.701 41.0043C166.467 41.0043 166.253 41.0402 166.061 41.113C165.868 41.1853 165.695 41.2809 165.54 41.3999C165.385 41.5193 165.253 41.6557 165.144 41.809C165.035 41.9624 164.952 42.1245 164.892 42.2944C164.818 42.508 164.772 42.7118 164.755 42.9079C164.738 43.104 164.73 43.3171 164.73 43.5467V47.1112Z" fill="white"/>
<path fill-rule="evenodd" clip-rule="evenodd" d="M88.7241 18.3944V15.0006C88.6932 15.0006 86.6469 15.0006 86.6469 15.0006C86.6193 15.0006 86.4387 15.0117 86.4198 15.0136C86.3971 15.016 86.3739 15.0189 86.3512 15.0223C86.3058 15.0285 86.2609 15.0362 86.216 15.0454C86.1276 15.0636 86.0406 15.0877 85.9556 15.1175C85.788 15.1758 85.6281 15.2552 85.4807 15.3533C85.3348 15.4505 85.2015 15.566 85.0851 15.6959C84.9677 15.8263 84.8672 15.9716 84.7866 16.1266C84.7044 16.2849 84.6426 16.4533 84.6039 16.627C84.5711 16.7762 84.5605 16.9258 84.5542 17.0774V18.3944H82.091V21.5005H84.4257V31.7671C84.4257 32.8074 84.6711 33.5778 85.1629 34.0777C85.9203 34.863 87.3343 35.2196 89.4023 35.1489L91.4761 35.0724V31.8128C91.3327 31.8234 91.1868 31.8311 91.0385 31.8364C90.8897 31.8417 90.7486 31.8441 90.6158 31.8441C89.725 31.8441 89.1922 31.7599 89.0183 31.591C88.8444 31.423 88.7574 30.9972 88.7574 30.3139V21.5005H91.4761V18.3944H88.7241Z" fill="white"/>
<path fill-rule="evenodd" clip-rule="evenodd" d="M103.554 18.0476C102.226 18.0476 101.147 18.3904 100.316 19.0751C99.8081 19.484 99.2108 20.2453 98.5264 21.3591V20.3866C98.5264 20.3702 98.5298 20.3543 98.5298 20.3379C98.5298 20.2839 98.5298 20.2294 98.5298 20.1749C98.5298 20.0978 98.5298 20.0206 98.5298 19.943C98.5298 19.8509 98.5298 19.7583 98.5298 19.6662C98.5298 19.5674 98.5298 19.4685 98.5298 19.3697C98.5298 19.2718 98.5298 19.1749 98.5298 19.0775C98.5298 18.9898 98.5298 18.902 98.5298 18.8147C98.5298 18.7448 98.5298 18.6754 98.5298 18.606C98.5298 18.5621 98.5298 18.5187 98.5298 18.4758C98.5298 18.4652 98.5298 18.4546 98.5298 18.4444H96.3909C96.363 18.4444 96.1785 18.4546 96.1594 18.456C96.1359 18.4584 96.1124 18.4613 96.0889 18.4642C96.0428 18.4705 95.9968 18.4777 95.9508 18.4864C95.8607 18.5037 95.7716 18.5264 95.6845 18.5548C95.5136 18.6093 95.3501 18.685 95.1998 18.7776C95.0505 18.8692 94.9144 18.9787 94.795 19.1016C94.6755 19.225 94.5727 19.362 94.49 19.509C94.4062 19.658 94.3827 19.8176 94.3431 19.9816C94.3093 20.1224 94.2985 20.2636 94.2917 20.4073V35.1577H98.7594V27.1701C98.7594 25.8312 98.9308 24.8398 99.2735 24.1957C99.8854 23.051 101.084 22.4787 102.869 22.4787C103.004 22.4787 103.181 22.484 103.399 22.4941C103.616 22.5042 103.866 22.5245 104.146 22.5549V18.0785C103.949 18.0683 103.822 18.0606 103.765 18.0553C103.707 18.0505 103.637 18.0476 103.554 18.0476Z" fill="white"/>
<path fill-rule="evenodd" clip-rule="evenodd" d="M106.727 34.9233H111.185V18.282H106.727V34.9233Z" fill="white"/>
<path fill-rule="evenodd" clip-rule="evenodd" d="M120.042 18.3944V15.0006C120.012 15.0006 117.965 15.0006 117.965 15.0006C117.938 15.0006 117.757 15.0117 117.738 15.0136C117.715 15.016 117.692 15.0189 117.67 15.0223C117.625 15.0285 117.579 15.0362 117.534 15.0454C117.446 15.0636 117.359 15.0877 117.274 15.1175C117.106 15.1758 116.946 15.2552 116.799 15.3533C116.654 15.4505 116.52 15.566 116.403 15.6959C116.286 15.8263 116.186 15.9716 116.105 16.1266C116.023 16.2849 115.961 16.4533 115.922 16.627C115.889 16.7762 115.879 16.9258 115.873 17.0774V18.3944H113.531V21.5005H115.866V31.7671C115.866 32.8074 116.112 33.5778 116.603 34.0777C117.361 34.863 118.774 35.2196 120.843 35.1489L122.916 35.0724V31.8128C122.773 31.8234 122.627 31.8311 122.479 31.8364C122.33 31.8417 122.189 31.8441 122.056 31.8441C121.165 31.8441 120.632 31.7599 120.459 31.591C120.285 31.423 120.198 30.9972 120.198 30.3139V21.5005H122.916V18.3944H120.042Z" fill="white"/>
<path fill-rule="evenodd" clip-rule="evenodd" d="M125.966 34.9233H130.424V18.282H125.966V34.9233Z" fill="white"/>
<path fill-rule="evenodd" clip-rule="evenodd" d="M144.975 30.6005C144.289 31.5088 143.305 31.9625 142.023 31.9625C140.742 31.9625 139.756 31.5088 139.064 30.6005C138.372 29.6918 138.026 28.4016 138.026 26.7278C138.026 25.0539 138.372 23.7653 139.064 22.8623C139.756 21.9593 140.742 21.5076 142.023 21.5076C143.305 21.5076 144.289 21.9593 144.975 22.8623C145.662 23.7653 146.006 25.0539 146.006 26.7278C146.006 28.4016 145.662 29.6918 144.975 30.6005ZM142.039 17.8132C139.158 17.8132 137.011 18.6964 135.597 20.4633C134.182 22.2298 133.475 24.3178 133.475 26.7278C133.475 29.1783 134.182 31.274 135.597 33.0149C137.011 34.7558 139.158 35.6264 142.039 35.6264C144.919 35.6264 147.066 34.7558 148.481 33.0149C149.896 31.274 150.602 29.1783 150.602 26.7278C150.602 24.3178 149.896 22.2298 148.481 20.4633C147.066 18.6964 144.919 17.8132 142.039 17.8132Z" fill="white"/>
<path fill-rule="evenodd" clip-rule="evenodd" d="M167.479 19.4044C166.372 18.4999 164.95 18.0476 163.212 18.0476C161.822 18.0476 160.675 18.3851 159.77 19.0597C159.338 19.3837 158.882 19.8948 158.405 20.5713C158.406 20.5336 158.413 20.496 158.413 20.4579C158.413 20.4006 158.413 20.3432 158.413 20.2853C158.413 20.2034 158.413 20.1209 158.413 20.0385C158.413 19.9406 158.413 19.8422 158.413 19.7443C158.413 19.6397 158.413 19.5341 158.413 19.4295C158.413 19.3258 158.413 19.2222 158.413 19.119C158.413 19.0259 158.413 18.9329 158.413 18.8393C158.413 18.7655 158.413 18.6918 158.413 18.6175C158.413 18.5717 158.413 18.5254 158.413 18.4791C158.413 18.4685 158.413 18.4574 158.413 18.4464H156.15C156.121 18.4464 155.925 18.457 155.905 18.4589C155.88 18.4613 155.855 18.4647 155.831 18.4676C155.781 18.4738 155.733 18.482 155.684 18.4912C155.589 18.5095 155.495 18.5336 155.402 18.5635C155.221 18.6219 155.049 18.7019 154.889 18.8003C154.731 18.8981 154.587 19.0139 154.461 19.1445C154.335 19.2757 154.226 19.4213 154.138 19.5775C154.05 19.7361 153.983 19.9054 153.941 20.0794C153.905 20.2294 153.894 20.3793 153.887 20.5322V35.1577H158.304V26.1118C158.304 25.08 158.448 24.2318 158.735 23.5669C159.289 22.3099 160.309 21.6812 161.797 21.6812C163.007 21.6812 163.827 22.1108 164.259 22.969C164.494 23.4392 164.612 24.1142 164.612 24.9927V35.1577H169.138V23.9044C169.138 21.8094 168.585 20.309 167.479 19.4044Z" fill="white"/>
<path fill-rule="evenodd" clip-rule="evenodd" d="M79.5091 18.282H77.2773C77.248 18.282 77.0552 18.2926 77.0354 18.2945C77.0109 18.297 76.9864 18.3003 76.9623 18.3032C76.9138 18.3095 76.8657 18.3177 76.8181 18.3269C76.7238 18.3453 76.631 18.3694 76.5396 18.3994C76.3612 18.4578 76.191 18.538 76.0337 18.6365C75.8784 18.7346 75.7361 18.8505 75.6115 18.9814C75.4865 19.1128 75.3793 19.2587 75.2932 19.4151C75.2057 19.5741 75.1811 19.7436 75.1398 19.918C75.1042 20.0682 75.0931 20.2184 75.0864 20.3715V22.4606H75.0907V27.3893C75.0907 28.465 74.9489 29.3301 74.6647 29.9851C74.1169 31.1936 73.1023 31.7979 71.6216 31.7979C70.4651 31.7979 69.6894 31.3733 69.2936 30.5232C69.0705 30.0421 68.9589 29.3248 68.9589 28.3728C68.9589 28.3728 68.9589 20.4044 68.9589 20.2971C68.9589 20.2397 68.9589 19.9595 68.9589 19.8769C68.9589 19.7789 68.9589 19.6803 68.9589 19.5823C68.9589 19.4775 68.9589 19.3717 68.9589 19.2669C68.9589 19.163 68.9589 19.0592 68.9589 18.9558C68.9589 18.8626 68.9589 18.7694 68.9589 18.6756C68.9589 18.6017 68.9589 18.5278 68.9589 18.4535C68.9589 18.4076 68.9589 18.3612 68.9589 18.3148C68.9589 18.3042 68.9589 18.2931 68.9589 18.282H66.7261C66.6973 18.282 66.5045 18.2926 66.4847 18.2945C66.4602 18.297 66.4357 18.3003 66.4112 18.3032C66.3631 18.3095 66.315 18.3177 66.2669 18.3269C66.1727 18.3453 66.0798 18.3694 65.9889 18.3994C65.8101 18.4578 65.6398 18.538 65.4826 18.6365C65.3272 18.7346 65.1849 18.8505 65.0604 18.9814C64.9353 19.1128 64.8281 19.2587 64.742 19.4151C64.654 19.5741 64.5886 19.7436 64.5472 19.918C64.5117 20.0682 64.5006 20.2184 64.4939 20.3715V28.3728C64.4939 30.2875 64.7324 31.736 65.2109 32.7195C66.0645 34.5009 67.7211 35.392 70.1813 35.392C71.0354 35.392 71.7798 35.279 72.4155 35.0544C73.0508 34.8288 73.7086 34.4091 74.3901 33.7942C74.6137 33.6 74.8065 33.3749 74.9695 33.1189C75.1316 32.8629 75.2335 32.7093 75.2739 32.6581V35.023H79.5101C79.5101 35.023 79.5091 18.2931 79.5091 18.282Z" fill="white"/>
<path fill-rule="evenodd" clip-rule="evenodd" d="M127.961 12.9038C127.937 12.9068 127.912 12.9097 127.888 12.9126C127.839 12.919 127.791 12.9273 127.743 12.9366C127.648 12.9551 127.556 12.9796 127.464 13.0099C127.285 13.0686 127.115 13.1497 126.957 13.2494C126.801 13.3482 126.659 13.4655 126.534 13.5974C126.408 13.7299 126.301 13.8775 126.214 14.0349C126.127 14.1957 126.061 14.3668 126.02 14.5433C125.984 14.6943 125.973 14.8464 125.966 15.0008V17.11H130.424V12.8911C130.392 12.8911 128.203 12.8911 128.203 12.8911C128.174 12.8911 127.981 12.9019 127.961 12.9038Z" fill="white"/>
<path fill-rule="evenodd" clip-rule="evenodd" d="M108.722 12.9038C108.697 12.9068 108.673 12.9097 108.648 12.9126C108.6 12.919 108.552 12.9273 108.504 12.9366C108.41 12.9551 108.316 12.9796 108.225 13.0099C108.046 13.0686 107.875 13.1497 107.718 13.2494C107.562 13.3482 107.42 13.4655 107.295 13.5974C107.169 13.7299 107.062 13.8775 106.975 14.0349C106.887 14.1957 106.822 14.3668 106.781 14.5433C106.745 14.6943 106.734 14.8464 106.727 15.0008V17.11H111.185V12.8911C111.152 12.8911 108.964 12.8911 108.964 12.8911C108.935 12.8911 108.742 12.9019 108.722 12.9038Z" fill="white"/>
<path fill-rule="evenodd" clip-rule="evenodd" d="M60.0229 35.1441V12.4224H57.8562C57.8277 12.4224 57.639 12.433 57.6197 12.435C57.5956 12.4369 57.5715 12.4398 57.5479 12.4432C57.5003 12.4495 57.4535 12.4573 57.4068 12.466C57.3144 12.4844 57.2233 12.5082 57.1342 12.5373C56.9594 12.595 56.7928 12.6736 56.6387 12.7701C56.4865 12.8661 56.3473 12.9805 56.2254 13.1086C55.8546 13.4985 55.6832 13.997 55.6509 14.5276C55.6417 14.673 55.6379 14.8185 55.6408 14.964V28.2766L46.68 12.4272H41.7349V35.1576H46.13V19.0299L55.3195 35.1576H60.0359C60.0359 35.1576 60.0359 35.1518 60.0359 35.1441H60.0229Z" fill="white"/>
</svg>
