<svg width="16" height="17" viewBox="0 0 16 17" fill="none" xmlns="http://www.w3.org/2000/svg">
<path d="M5.35884 2.79736C4.8505 2.79736 3.31792 3.41909 3.04296 3.54334C2.768 3.66759 2.46281 4.05546 2.11651 4.69561C1.76974 5.33576 1.49148 6.0841 1.03936 7.18488C0.587708 8.28566 0.482355 10.4078 0.497473 11.0555C0.512591 11.7033 0.586763 12.2092 1.25054 12.5924C1.91384 12.9751 2.5006 13.3757 3.11808 13.6166C3.73602 13.8576 4.15744 14.031 4.44373 13.79C4.73003 13.5491 4.91853 13.1272 4.91853 13.1272C4.91853 13.1272 5.18971 12.7507 4.67759 12.5248C4.16547 12.2985 3.90941 12.1403 3.93161 11.9069C3.95429 11.6735 3.99161 11.5455 4.11964 11.5757C4.24767 11.6059 4.54956 12.1478 5.70939 12.3963C6.86922 12.6448 7.99976 12.6075 7.99976 12.6075C7.99976 12.6075 9.13077 12.6453 10.2906 12.3963C11.4504 12.1478 11.7519 11.6059 11.8799 11.5757C12.0079 11.5455 12.0452 11.6735 12.0679 11.9064C12.0906 12.1403 11.8345 12.2985 11.3224 12.5248C10.8103 12.7507 11.0815 13.1272 11.0815 13.1272C11.0815 13.1272 11.27 13.5486 11.5563 13.79C11.8421 14.031 12.264 13.8576 12.8814 13.6166C13.4989 13.3757 14.0862 12.9755 14.7495 12.5924C15.4132 12.2092 15.4874 11.7033 15.5025 11.0555C15.5176 10.4083 15.4123 8.28566 14.9602 7.18488C14.5085 6.0841 14.2298 5.33576 13.883 4.69561C13.5372 4.05546 13.2315 3.66759 12.957 3.54287C12.6821 3.41909 11.149 2.79736 10.6407 2.79736C10.1323 2.79736 9.9821 3.15169 9.9821 3.15169L9.80494 3.54334C9.80494 3.54334 8.6144 3.31704 8.00779 3.31657C7.40119 3.31657 6.19506 3.54334 6.19506 3.54334L6.01789 3.15122C6.01789 3.15122 5.86766 2.79736 5.35884 2.79736ZM5.41412 7.49716H5.43302C6.17427 7.49716 6.77473 8.14581 6.77473 8.94565C6.77473 9.74596 6.17427 10.3941 5.43302 10.3941C4.69176 10.3941 4.0913 9.74596 4.0913 8.94565C4.09082 8.15337 4.68042 7.50803 5.41412 7.49716ZM10.567 7.49716H10.5859C11.3196 7.50803 11.9087 8.15385 11.9087 8.94565C11.9087 9.74596 11.3082 10.3941 10.567 10.3941C9.82526 10.3941 9.22526 9.74596 9.22526 8.94565C9.22526 8.14581 9.82526 7.49716 10.567 7.49716Z" fill="#111111"/>
</svg>
