<svg width="119" height="35" viewBox="0 0 119 35" fill="none" xmlns="http://www.w3.org/2000/svg">
<path d="M0.302638 0.149278H24.9823L25.2849 0.448097V6.57173L24.9823 6.87055H16.251V34.7014L15.8978 35H9.38683L9.08392 34.7014V6.87055H0.302638L0 6.57173V0.448097L0.302638 0.149278ZM31.0371 0.0495868H55.7657L56.1191 0.348406V6.96999L47.9939 14.9857L56.1191 23.05V29.8211L50.82 34.9992H35.9828L30.7342 29.8214V25.2412L31.0371 24.9424H37.5978L37.9005 25.2412V26.9835L38.8597 27.9298H47.9939L48.9023 26.9835V25.8874L38.0518 14.9836V14.8344L45.7236 7.11744H31.0371L30.7342 6.81861V0.346319L31.0371 0.0495868ZM62.8311 0H87.6105L87.9637 0.348406V4.5306C87.93 5.32659 82.816 12.9936 72.6217 27.5315V27.8813H87.6105L87.9637 28.2297V34.6516L87.6105 35H62.8311L62.4782 34.6516V30.4198C62.4782 29.8888 66.2969 24.1298 73.9343 13.1429L77.8197 7.26724V7.11796H62.8311L62.478 6.7197V0.347625L62.8311 0ZM93.8683 0H118.648L119 0.348406V4.5306C118.966 5.32659 113.852 12.9936 103.658 27.5315V27.8813H118.647L119 28.2297V34.6516L118.647 35H93.8683L93.5151 34.6516V30.4198C93.5151 29.8888 97.3334 24.1298 104.97 13.1429L108.857 7.26724V7.11796H93.8683L93.5151 6.7197V0.347625L93.8683 0Z" fill="white"/>
</svg>
