<svg width="16" height="17" viewBox="0 0 16 17" fill="none" xmlns="http://www.w3.org/2000/svg">
<path fill-rule="evenodd" clip-rule="evenodd" d="M8 0.351562C3.58233 0.351562 0 4.0239 0 8.5539C0 12.1782 2.29233 15.2529 5.471 16.3372C5.871 16.4132 6.01767 16.1596 6.01767 15.9429C6.01767 15.7472 6.01 15.1012 6.00667 14.4159C3.781 14.9119 3.31133 13.4479 3.31133 13.4479C2.94733 12.4999 2.423 12.2479 2.423 12.2479C1.69733 11.7386 2.478 11.7492 2.478 11.7492C3.28133 11.8069 3.70433 12.5942 3.70433 12.5942C4.41767 13.8482 5.57567 13.4859 6.03233 13.2762C6.104 12.7462 6.31133 12.3842 6.54 12.1796C4.76333 11.9719 2.89533 11.2686 2.89533 8.12556C2.89533 7.23023 3.20767 6.49823 3.71967 5.9239C3.63633 5.71723 3.36267 4.8829 3.797 3.75323C3.797 3.75323 4.469 3.5329 5.99767 4.5939C6.63567 4.41223 7.32033 4.32123 8 4.3179C8.68 4.32123 9.365 4.41223 10.0043 4.5939C11.531 3.5329 12.202 3.75323 12.202 3.75323C12.6373 4.88323 12.3633 5.71723 12.2803 5.9239C12.7937 6.49823 13.1037 7.23023 13.1037 8.12556C13.1037 11.2762 11.2323 11.9699 9.45067 12.1729C9.73767 12.4276 9.99333 12.9266 9.99333 13.6919C9.99333 14.7892 9.98433 15.6726 9.98433 15.9429C9.98433 16.1612 10.1283 16.4169 10.5337 16.3362C13.7107 15.2506 16 12.1769 16 8.5539C16 4.0239 12.4183 0.351562 8 0.351562Z" fill="#111111"/>
</svg>
