<svg width="1920" height="2604" viewBox="0 0 1920 2604" fill="none" xmlns="http://www.w3.org/2000/svg">
<g opacity="0.75" filter="url(#filter0_f_324_3)">
<path d="M383.928 594L778.934 879.21V1218.98H232.084L5 810.14V594H383.928Z" fill="#8123DB"/>
<path d="M227.311 1031.94H767.622V1206.04H227.311V1031.94Z" fill="black"/>
<path d="M238.293 1041.79H346.367L347.693 1043.12V1070.3L346.367 1071.63H308.129V1195.17L306.582 1196.49H278.073L276.747 1195.17V1071.63H238.293L236.967 1070.3V1043.12L238.293 1041.79ZM372.882 1041.35H481.172L482.719 1042.68V1072.07L447.138 1107.65L482.719 1143.45V1173.51L459.514 1196.49H394.54L371.556 1173.51V1153.18L372.882 1151.85H401.612L402.938 1153.18V1160.91L407.138 1165.11H447.138L451.116 1160.91V1156.05L403.601 1107.65V1106.99L437.193 1072.73H372.882L371.556 1071.41V1042.68L372.882 1041.35ZM512.112 1041.13H620.623L622.17 1042.68V1061.24C622.023 1064.77 599.628 1098.81 554.986 1163.34V1164.89H620.623L622.17 1166.44V1194.95L620.623 1196.49H512.112L510.567 1194.95V1176.16C510.567 1173.8 527.289 1148.24 560.734 1099.47L577.749 1073.39V1072.73H512.112L510.565 1070.96V1042.67L512.112 1041.13ZM648.027 1041.13H756.538L758.085 1042.68V1061.24C757.938 1064.77 735.543 1098.81 690.901 1163.34V1164.89H756.538L758.085 1166.44V1194.95L756.538 1196.49H648.027L646.48 1194.95V1176.16C646.48 1173.8 663.202 1148.24 696.647 1099.47L713.667 1073.39V1072.73H648.027L646.48 1070.96V1042.67L648.027 1041.13Z" fill="white"/>
<path d="M25.367 618.471H42.831C47.2896 624.162 49.519 627.242 49.519 627.711V640.251C49.519 640.718 47.2896 643.798 42.831 649.491H25.367L25.099 649.227V643.903L25.367 643.639H27.347V624.455H25.367L25.099 624.191V618.735L25.367 618.471ZM33.639 624.455V643.639H39.887C42.1163 640.266 43.231 638.447 43.231 638.183V629.515L39.755 624.455H33.639ZM55.811 618.471H75.303L75.567 618.735V624.191L75.303 624.455H61.839V630.923H73.059L73.323 631.187V636.467L73.059 636.775H61.839V643.639H75.303L75.567 643.903V649.227L75.303 649.491H55.811L55.547 649.227V618.735L55.811 618.471ZM87.755 618.603H96.379L103.199 625.423V627.223L102.891 627.491H96.643L93.867 624.983H90.395L87.315 627.931V640.291L90.395 643.239H93.867L96.639 640.599H102.887L103.195 640.863V642.799L96.379 649.491H87.755L81.067 642.803V625.423L87.755 618.603ZM108.787 618.471H128.279L128.543 618.735V624.191L128.279 624.455H114.815V630.923H126.035L126.299 631.187V636.467L126.035 636.775H114.815V643.639H128.279L128.543 643.903V649.227L128.279 649.491H108.787L108.523 649.227V618.735L108.787 618.471ZM134.395 618.559H138.443L149.883 635.411V618.823L150.147 618.559H155.999L156.307 618.823V649.223L155.999 649.491H151.819L140.419 632.771V649.227L140.115 649.491H134.395L134.131 649.227V618.827L134.395 618.559ZM161.939 618.691H183.455L183.719 618.955V624.367L183.455 624.631H175.843V649.231L175.535 649.491H169.859L169.595 649.227V624.627H161.939L161.675 624.363V618.951L161.939 618.691ZM188.647 618.647H204.355L210.471 624.763V631.583L204.487 637.523C208.388 645.235 210.339 649.224 210.339 649.491H203.651C203.475 649.491 201.495 645.56 197.711 637.699H194.631V649.227L194.367 649.491H188.647L188.383 649.227V618.911L188.647 618.647ZM194.631 624.587V631.847H201.847L204.223 629.075V627.275L201.847 624.591L194.631 624.587ZM224.815 618.603H228.815C229.138 618.603 232.159 624.587 237.879 636.555V649.227L237.575 649.491H231.899L231.591 649.227V643.243H221.999V649.227L221.735 649.491H216.015L215.751 649.227V636.555C221.471 624.587 224.492 618.603 224.815 618.603ZM226.751 627.003L222.131 637.391H231.503V637.259L226.883 627.007L226.751 627.003ZM243.603 618.555H249.455L249.763 618.819V643.639H263.447L263.755 643.947V649.227L263.447 649.491H243.603L243.339 649.227V618.827L243.603 618.555ZM270.179 618.467H283.067L283.331 618.731V624.191L283.067 624.455H279.679V643.639H283.067L283.331 643.903V649.227L283.067 649.491H270.179L269.915 649.227V643.903L270.179 643.639H273.391V624.455H270.179L269.915 624.191V618.735L270.179 618.467ZM290.023 618.555H311.623L311.931 618.863V622.563C311.902 623.267 307.443 630.043 298.555 642.891V643.199H311.627L311.935 643.507V649.183L311.627 649.491H290.027L289.719 649.183V645.443C289.719 644.976 293.048 639.887 299.707 630.175L303.095 624.983V624.851H290.023L289.715 624.499V618.867L290.023 618.555ZM316.863 618.467H336.355L336.619 618.731V624.191L336.355 624.455H322.891V630.923H334.111L334.375 631.187V636.467L334.111 636.775H322.891V643.639H336.355L336.619 643.903V649.227L336.355 649.491H316.867L316.603 649.227V618.735L316.863 618.467ZM342.515 618.467H359.983C364.442 624.158 366.671 627.238 366.671 627.707V640.251C366.671 640.718 364.442 643.798 359.983 649.491H342.515L342.251 649.227V643.903L342.515 643.639H344.495V624.455H342.515L342.251 624.191V618.735L342.515 618.467ZM350.787 624.451V643.639H357.035C359.264 640.266 360.379 638.447 360.379 638.183V629.515L356.903 624.455L350.787 624.451ZM25.099 671.471H44.591L44.855 671.735V677.191L44.591 677.455H31.127V683.923H42.347L42.611 684.187V689.467L42.347 689.775H31.127V696.639H44.591L44.855 696.903V702.227L44.591 702.491H25.099L24.835 702.227V671.735L25.099 671.471ZM57.043 671.603H65.667L72.487 678.423V680.223L72.179 680.491H65.931L63.159 677.983H59.683L56.603 680.931V693.291L59.683 696.239H63.159L65.931 693.599H72.179L72.487 693.863V695.799L65.667 702.491H57.043L50.355 695.803V678.423L57.043 671.603ZM84.631 671.603H93.387L100.075 678.423V695.803L93.387 702.491H84.631L77.943 695.803V678.423L84.631 671.603ZM84.191 680.931V693.291L87.271 696.239H90.747L93.783 693.291V680.931L90.747 677.983H87.267L84.191 680.931ZM110.991 671.647H120.979L126.963 677.763V680.271L126.699 680.535H120.979L118.339 678.027H113.627L111.251 680.271V681.635L113.627 684.011H120.975L126.959 689.995V696.507L120.975 702.491H110.987L105.003 696.507V693.867L105.267 693.603H110.987L113.627 696.243H118.335L120.711 693.867V692.635L118.335 690.259H110.987L105.003 684.143V677.763L110.991 671.647ZM138.623 671.559C139.09 671.94 140.336 675.05 142.363 680.887C142.817 681.699 143.144 682.576 143.331 683.487H143.463C146.044 676.212 147.555 672.238 147.995 671.563H154.111L154.287 671.739H154.419L146.543 689.427V702.187L146.235 702.495H140.427L140.075 702.187V689.423L132.199 671.735L132.375 671.559H138.623ZM164.583 671.647H174.567L180.551 677.763V680.271L180.287 680.535H174.567L171.927 678.027H167.219L164.843 680.271V681.635L167.219 684.011H174.567L180.551 689.995V696.507L174.567 702.491H164.579L158.595 696.507V693.867L158.859 693.603H164.579L167.219 696.243H171.927L174.303 693.867V692.635L171.927 690.259H164.579L158.595 684.143V677.763L164.583 671.647ZM186.055 671.691H207.567L207.831 671.955V677.367L207.567 677.631H199.955V702.231L199.647 702.491H193.967L193.703 702.227V677.631H186.047L185.783 677.367V671.955L186.055 671.691ZM212.763 671.471H232.255L232.519 671.735V677.191L232.255 677.455H218.787V683.923H230.007L230.271 684.187V689.467L230.007 689.775H218.787V696.639H232.251L232.515 696.903V702.227L232.251 702.491H212.759L212.495 702.227V671.735L212.763 671.471ZM238.371 671.559H242.419L251.351 682.159L260.283 671.559H264.283L264.591 671.823V702.223L264.283 702.487H258.607L258.299 702.223V683.659L251.347 691.759H251.215C246.756 686.567 244.527 683.867 244.527 683.659H244.395V702.227L244.087 702.491H238.367L238.103 702.227V671.827L238.371 671.559ZM295.087 671.603H303.843L310.531 678.423V695.803L303.839 702.491H295.083L288.395 695.803V678.423L295.087 671.603ZM294.647 680.931V693.291L297.727 696.239H301.203L304.239 693.291V680.931L301.203 677.983H297.727L294.647 680.931ZM315.767 671.471H335.259L335.523 671.735V677.191L335.259 677.455H321.791V683.923H333.011L333.275 684.187V689.467L333.011 689.775H321.791V702.227L321.527 702.491H315.767L315.503 702.227V671.735L315.767 671.471ZM25.275 724.603H30.995L31.259 724.867V736.967H40.851V724.867L41.159 724.603H46.835L47.143 724.867V755.227L46.835 755.491H41.159L40.851 755.227V742.819H31.259V755.227L30.995 755.491H25.275L25.011 755.227V724.867L25.275 724.603ZM52.643 724.691H58.495L58.759 724.955V746.339L61.659 749.239H65.267L68.167 746.339V724.955L68.475 724.691H74.151L74.415 724.955V748.847L67.779 755.491H59.199L52.379 748.847V724.955L52.643 724.691ZM79.483 724.559H83.531L92.463 735.159L101.395 724.559H105.395L105.703 724.823V755.223L105.395 755.487H99.723L99.415 755.223V736.659L92.463 744.759H92.331C87.8723 739.567 85.643 736.867 85.643 736.659H85.511V755.227L85.203 755.491H79.483L79.219 755.227V724.827L79.483 724.559ZM120.931 724.603H124.931C125.254 724.603 128.275 730.587 133.995 742.555V755.227L133.687 755.491H128.011L127.703 755.227V749.243H118.115V755.227L117.851 755.491H112.131L111.867 755.227V742.555C117.587 730.587 120.608 724.603 120.931 724.603ZM122.867 733.003L118.247 743.391H127.619V743.259L122.999 733.007L122.867 733.003ZM139.807 724.555H143.855L155.295 741.407V724.823L155.559 724.559H161.411L161.719 724.823V755.223L161.411 755.487H157.231L145.831 738.767V755.223L145.523 755.487H139.803L139.539 755.223V724.823L139.807 724.555ZM185.083 724.599H190.803L191.067 724.863V736.963H200.659V724.863L200.967 724.599H206.643L206.951 724.863V755.223L206.643 755.487H200.967L200.659 755.223V742.819H191.067V755.227L190.803 755.491H185.083L184.819 755.227V724.867L185.083 724.599ZM212.055 724.467H231.547L231.811 724.731V730.191L231.547 730.455H218.083V736.923H229.303L229.567 737.187V742.467L229.303 742.775H218.083V749.639H231.547L231.811 749.903V755.227L231.547 755.491H212.055L211.791 755.227V724.735L212.055 724.467ZM246.419 724.599H250.419C250.742 724.599 253.763 730.583 259.483 742.551V755.223L259.175 755.487H253.499L253.191 755.223V749.243H243.599V755.227L243.335 755.491H237.615L237.351 755.227V742.555C243.074 730.587 246.096 724.603 246.419 724.603V724.599ZM248.355 732.999L243.735 743.391H253.107V743.259L248.487 733.007L248.355 732.999ZM265.207 724.551H271.059L271.367 724.815V749.631H285.051L285.359 749.939V755.219L285.051 755.483H265.207L264.943 755.219V724.819L265.207 724.551ZM290.907 724.683H312.423L312.687 724.947V730.359L312.423 730.623H304.807V755.223L304.499 755.487H298.823L298.559 755.223V730.631H290.903L290.639 730.367V724.955L290.907 724.683ZM317.791 724.595H323.511L323.775 724.859V736.959H333.367V724.859L333.675 724.595H339.351L339.659 724.859V755.219L339.351 755.483H333.667L333.359 755.219V742.819H323.767V755.227L323.503 755.491H317.783L317.519 755.227V724.867L317.791 724.595Z" fill="white"/>
</g>
<g opacity="0.75" filter="url(#filter1_f_324_3)">
<path d="M1734.93 1729L2129.93 2014.21V2353.98H1583.08L1356 1945.14V1729H1734.93Z" fill="#8123DB"/>
<path d="M1578.31 2166.94H2118.62V2341.04H1578.31V2166.94Z" fill="black"/>
<path d="M1589.29 2176.79H1697.37L1698.69 2178.12V2205.3L1697.37 2206.63H1659.13V2330.17L1657.58 2331.49H1629.07L1627.75 2330.17V2206.63H1589.29L1587.97 2205.3V2178.12L1589.29 2176.79ZM1723.88 2176.35H1832.17L1833.72 2177.68V2207.07L1798.14 2242.65L1833.72 2278.45V2308.51L1810.51 2331.49H1745.54L1722.56 2308.51V2288.18L1723.88 2286.85H1752.61L1753.94 2288.18V2295.91L1758.14 2300.11H1798.14L1802.12 2295.91V2291.05L1754.6 2242.65V2241.99L1788.19 2207.73H1723.88L1722.56 2206.41V2177.68L1723.88 2176.35ZM1863.11 2176.13H1971.62L1973.17 2177.68V2196.24C1973.02 2199.77 1950.63 2233.81 1905.99 2298.34V2299.89H1971.62L1973.17 2301.44V2329.95L1971.62 2331.49H1863.11L1861.57 2329.95V2311.16C1861.57 2308.8 1878.29 2283.24 1911.73 2234.47L1928.75 2208.39V2207.73H1863.11L1861.57 2205.96V2177.67L1863.11 2176.13ZM1999.03 2176.13H2107.54L2109.09 2177.68V2196.24C2108.94 2199.77 2086.54 2233.81 2041.9 2298.34V2299.89H2107.54L2109.09 2301.44V2329.95L2107.54 2331.49H1999.03L1997.48 2329.95V2311.16C1997.48 2308.8 2014.2 2283.24 2047.65 2234.47L2064.67 2208.39V2207.73H1999.03L1997.48 2205.96V2177.67L1999.03 2176.13Z" fill="white"/>
<path d="M1376.37 1753.47H1393.83C1398.29 1759.16 1400.52 1762.24 1400.52 1762.71V1775.25C1400.52 1775.72 1398.29 1778.8 1393.83 1784.49H1376.37L1376.1 1784.23V1778.9L1376.37 1778.64H1378.35V1759.46H1376.37L1376.1 1759.19V1753.74L1376.37 1753.47ZM1384.64 1759.46V1778.64H1390.89C1393.12 1775.27 1394.23 1773.45 1394.23 1773.18V1764.52L1390.75 1759.46H1384.64ZM1406.81 1753.47H1426.3L1426.57 1753.74V1759.19L1426.3 1759.46H1412.84V1765.92H1424.06L1424.32 1766.19V1771.47L1424.06 1771.78H1412.84V1778.64H1426.3L1426.57 1778.9V1784.23L1426.3 1784.49H1406.81L1406.55 1784.23V1753.74L1406.81 1753.47ZM1438.75 1753.6H1447.38L1454.2 1760.42V1762.22L1453.89 1762.49H1447.64L1444.87 1759.98H1441.39L1438.31 1762.93V1775.29L1441.39 1778.24H1444.87L1447.64 1775.6H1453.89L1454.19 1775.86V1777.8L1447.38 1784.49H1438.75L1432.07 1777.8V1760.42L1438.75 1753.6ZM1459.79 1753.47H1479.28L1479.54 1753.74V1759.19L1479.28 1759.46H1465.81V1765.92H1477.03L1477.3 1766.19V1771.47L1477.03 1771.78H1465.81V1778.64H1479.28L1479.54 1778.9V1784.23L1479.28 1784.49H1459.79L1459.52 1784.23V1753.74L1459.79 1753.47ZM1485.39 1753.56H1489.44L1500.88 1770.41V1753.82L1501.15 1753.56H1507L1507.31 1753.82V1784.22L1507 1784.49H1502.82L1491.42 1767.77V1784.23L1491.11 1784.49H1485.39L1485.13 1784.23V1753.83L1485.39 1753.56ZM1512.94 1753.69H1534.45L1534.72 1753.96V1759.37L1534.45 1759.63H1526.84V1784.23L1526.53 1784.49H1520.86L1520.59 1784.23V1759.63H1512.94L1512.67 1759.36V1753.95L1512.94 1753.69ZM1539.65 1753.65H1555.35L1561.47 1759.76V1766.58L1555.49 1772.52C1559.39 1780.24 1561.34 1784.22 1561.34 1784.49H1554.65C1554.47 1784.49 1552.49 1780.56 1548.71 1772.7H1545.63V1784.23L1545.37 1784.49H1539.65L1539.38 1784.23V1753.91L1539.65 1753.65ZM1545.63 1759.59V1766.85H1552.85L1555.22 1764.08V1762.28L1552.85 1759.59L1545.63 1759.59ZM1575.81 1753.6H1579.81C1580.14 1753.6 1583.16 1759.59 1588.88 1771.56V1784.23L1588.57 1784.49H1582.9L1582.59 1784.23V1778.24H1573V1784.23L1572.73 1784.49H1567.01L1566.75 1784.23V1771.56C1572.47 1759.59 1575.49 1753.6 1575.81 1753.6ZM1577.75 1762L1573.13 1772.39H1582.5V1772.26L1577.88 1762.01L1577.75 1762ZM1594.6 1753.56H1600.45L1600.76 1753.82V1778.64H1614.45L1614.75 1778.95V1784.23L1614.45 1784.49H1594.6L1594.34 1784.23V1753.83L1594.6 1753.56ZM1621.18 1753.47H1634.07L1634.33 1753.73V1759.19L1634.07 1759.46H1630.68V1778.64H1634.07L1634.33 1778.9V1784.23L1634.07 1784.49H1621.18L1620.91 1784.23V1778.9L1621.18 1778.64H1624.39V1759.46H1621.18L1620.91 1759.19V1753.74L1621.18 1753.47ZM1641.02 1753.56H1662.62L1662.93 1753.86V1757.56C1662.9 1758.27 1658.44 1765.04 1649.55 1777.89V1778.2H1662.63L1662.93 1778.51V1784.18L1662.63 1784.49H1641.03L1640.72 1784.18V1780.44C1640.72 1779.98 1644.05 1774.89 1650.71 1765.18L1654.09 1759.98V1759.85H1641.02L1640.71 1759.5V1753.87L1641.02 1753.56ZM1667.86 1753.47H1687.35L1687.62 1753.73V1759.19L1687.35 1759.46H1673.89V1765.92H1685.11L1685.37 1766.19V1771.47L1685.11 1771.78H1673.89V1778.64H1687.35L1687.62 1778.9V1784.23L1687.35 1784.49H1667.87L1667.6 1784.23V1753.74L1667.86 1753.47ZM1693.51 1753.47H1710.98C1715.44 1759.16 1717.67 1762.24 1717.67 1762.71V1775.25C1717.67 1775.72 1715.44 1778.8 1710.98 1784.49H1693.51L1693.25 1784.23V1778.9L1693.51 1778.64H1695.49V1759.46H1693.51L1693.25 1759.19V1753.74L1693.51 1753.47ZM1701.79 1759.45V1778.64H1708.03C1710.26 1775.27 1711.38 1773.45 1711.38 1773.18V1764.52L1707.9 1759.46L1701.79 1759.45ZM1376.1 1806.47H1395.59L1395.85 1806.74V1812.19L1395.59 1812.46H1382.13V1818.92H1393.35L1393.61 1819.19V1824.47L1393.35 1824.78H1382.13V1831.64H1395.59L1395.85 1831.9V1837.23L1395.59 1837.49H1376.1L1375.83 1837.23V1806.74L1376.1 1806.47ZM1408.04 1806.6H1416.67L1423.49 1813.42V1815.22L1423.18 1815.49H1416.93L1414.16 1812.98H1410.68L1407.6 1815.93V1828.29L1410.68 1831.24H1414.16L1416.93 1828.6H1423.18L1423.49 1828.86V1830.8L1416.67 1837.49H1408.04L1401.35 1830.8V1813.42L1408.04 1806.6ZM1435.63 1806.6H1444.39L1451.07 1813.42V1830.8L1444.39 1837.49H1435.63L1428.94 1830.8V1813.42L1435.63 1806.6ZM1435.19 1815.93V1828.29L1438.27 1831.24H1441.75L1444.78 1828.29V1815.93L1441.75 1812.98H1438.27L1435.19 1815.93ZM1461.99 1806.65H1471.98L1477.96 1812.76V1815.27L1477.7 1815.54H1471.98L1469.34 1813.03H1464.63L1462.25 1815.27V1816.64L1464.63 1819.01H1471.97L1477.96 1825V1831.51L1471.97 1837.49H1461.99L1456 1831.51V1828.87L1456.27 1828.6H1461.99L1464.63 1831.24H1469.33L1471.71 1828.87V1827.64L1469.33 1825.26H1461.99L1456 1819.14V1812.76L1461.99 1806.65ZM1489.62 1806.56C1490.09 1806.94 1491.34 1810.05 1493.36 1815.89C1493.82 1816.7 1494.14 1817.58 1494.33 1818.49H1494.46C1497.04 1811.21 1498.55 1807.24 1498.99 1806.56H1505.11L1505.29 1806.74H1505.42L1497.54 1824.43V1837.19L1497.23 1837.5H1491.43L1491.07 1837.19V1824.42L1483.2 1806.74L1483.37 1806.56H1489.62ZM1515.58 1806.65H1525.57L1531.55 1812.76V1815.27L1531.29 1815.54H1525.57L1522.93 1813.03H1518.22L1515.84 1815.27V1816.64L1518.22 1819.01H1525.57L1531.55 1825V1831.51L1525.57 1837.49H1515.58L1509.59 1831.51V1828.87L1509.86 1828.6H1515.58L1518.22 1831.24H1522.93L1525.3 1828.87V1827.64L1522.93 1825.26H1515.58L1509.59 1819.14V1812.76L1515.58 1806.65ZM1537.05 1806.69H1558.57L1558.83 1806.96V1812.37L1558.57 1812.63H1550.95V1837.23L1550.65 1837.49H1544.97L1544.7 1837.23V1812.63H1537.05L1536.78 1812.37V1806.96L1537.05 1806.69ZM1563.76 1806.47H1583.25L1583.52 1806.74V1812.19L1583.25 1812.46H1569.79V1818.92H1581.01L1581.27 1819.19V1824.47L1581.01 1824.78H1569.79V1831.64H1583.25L1583.51 1831.9V1837.23L1583.25 1837.49H1563.76L1563.49 1837.23V1806.74L1563.76 1806.47ZM1589.37 1806.56H1593.42L1602.35 1817.16L1611.28 1806.56H1615.28L1615.59 1806.82V1837.22L1615.28 1837.49H1609.61L1609.3 1837.22V1818.66L1602.35 1826.76H1602.21C1597.76 1821.57 1595.53 1818.87 1595.53 1818.66H1595.39V1837.23L1595.09 1837.49H1589.37L1589.1 1837.23V1806.83L1589.37 1806.56ZM1646.09 1806.6H1654.84L1661.53 1813.42V1830.8L1654.84 1837.49H1646.08L1639.39 1830.8V1813.42L1646.09 1806.6ZM1645.65 1815.93V1828.29L1648.73 1831.24H1652.2L1655.24 1828.29V1815.93L1652.2 1812.98H1648.73L1645.65 1815.93ZM1666.77 1806.47H1686.26L1686.52 1806.74V1812.19L1686.26 1812.46H1672.79V1818.92H1684.01L1684.27 1819.19V1824.47L1684.01 1824.78H1672.79V1837.23L1672.53 1837.49H1666.77L1666.5 1837.23V1806.74L1666.77 1806.47ZM1376.27 1859.6H1381.99L1382.26 1859.87V1871.97H1391.85V1859.87L1392.16 1859.6H1397.83L1398.14 1859.87V1890.23L1397.83 1890.49H1392.16L1391.85 1890.23V1877.82H1382.26V1890.23L1381.99 1890.49H1376.27L1376.01 1890.23V1859.87L1376.27 1859.6ZM1403.64 1859.69H1409.49L1409.76 1859.96V1881.34L1412.66 1884.24H1416.27L1419.17 1881.34V1859.96L1419.47 1859.69H1425.15L1425.41 1859.96V1883.85L1418.78 1890.49H1410.2L1403.38 1883.85V1859.96L1403.64 1859.69ZM1430.48 1859.56H1434.53L1443.46 1870.16L1452.39 1859.56H1456.39L1456.7 1859.82V1890.22L1456.39 1890.49H1450.72L1450.41 1890.22V1871.66L1443.46 1879.76H1443.33C1438.87 1874.57 1436.64 1871.87 1436.64 1871.66H1436.51V1890.23L1436.2 1890.49H1430.48L1430.22 1890.23V1859.83L1430.48 1859.56ZM1471.93 1859.6H1475.93C1476.25 1859.6 1479.27 1865.59 1484.99 1877.56V1890.23L1484.69 1890.49H1479.01L1478.7 1890.23V1884.24H1469.11V1890.23L1468.85 1890.49H1463.13L1462.87 1890.23V1877.56C1468.59 1865.59 1471.61 1859.6 1471.93 1859.6ZM1473.87 1868L1469.25 1878.39H1478.62V1878.26L1474 1868.01L1473.87 1868ZM1490.81 1859.56H1494.85L1506.29 1876.41V1859.82L1506.56 1859.56H1512.41L1512.72 1859.82V1890.22L1512.41 1890.49H1508.23L1496.83 1873.77V1890.22L1496.52 1890.49H1490.8L1490.54 1890.22V1859.82L1490.81 1859.56ZM1536.08 1859.6H1541.8L1542.07 1859.86V1871.96H1551.66V1859.86L1551.97 1859.6H1557.64L1557.95 1859.86V1890.22L1557.64 1890.49H1551.97L1551.66 1890.22V1877.82H1542.07V1890.23L1541.8 1890.49H1536.08L1535.82 1890.23V1859.87L1536.08 1859.6ZM1563.05 1859.47H1582.55L1582.81 1859.73V1865.19L1582.55 1865.46H1569.08V1871.92H1580.3L1580.57 1872.19V1877.47L1580.3 1877.78H1569.08V1884.64H1582.55L1582.81 1884.9V1890.23L1582.55 1890.49H1563.05L1562.79 1890.23V1859.74L1563.05 1859.47ZM1597.42 1859.6H1601.42C1601.74 1859.6 1604.76 1865.58 1610.48 1877.55V1890.22L1610.17 1890.49H1604.5L1604.19 1890.22V1884.24H1594.6V1890.23L1594.33 1890.49H1588.61L1588.35 1890.23V1877.56C1594.07 1865.59 1597.1 1859.6 1597.42 1859.6V1859.6ZM1599.35 1868L1594.73 1878.39H1604.11V1878.26L1599.49 1868.01L1599.35 1868ZM1616.21 1859.55H1622.06L1622.37 1859.82V1884.63H1636.05L1636.36 1884.94V1890.22L1636.05 1890.48H1616.21L1615.94 1890.22V1859.82L1616.21 1859.55ZM1641.91 1859.68H1663.42L1663.69 1859.95V1865.36L1663.42 1865.62H1655.81V1890.22L1655.5 1890.49H1649.82L1649.56 1890.22V1865.63H1641.9L1641.64 1865.37V1859.96L1641.91 1859.68ZM1668.79 1859.6H1674.51L1674.77 1859.86V1871.96H1684.37V1859.86L1684.67 1859.6H1690.35L1690.66 1859.86V1890.22L1690.35 1890.48H1684.67L1684.36 1890.22V1877.82H1674.77V1890.23L1674.5 1890.49H1668.78L1668.52 1890.23V1859.87L1668.79 1859.6Z" fill="white"/>
</g>
<g opacity="0.75" filter="url(#filter2_f_324_3)">
<path d="M2218.38 274.196L2282.79 757.131L2036.03 990.702L1660.1 593.553L1800.92 147.581L1957.89 -1L2218.38 274.196Z" fill="#8123DB"/>
<path d="M1792.66 461.506L2164.09 853.907L2037.65 973.589L1666.22 581.188L1792.66 461.506Z" fill="black"/>
<path d="M1793.06 476.255L1867.35 554.744L1867.3 556.618L1847.56 575.305L1845.68 575.253L1819.4 547.483L1729.68 632.408L1727.65 632.196L1708.05 611.491L1708.1 609.616L1797.82 524.692L1771.39 496.765L1771.44 494.89L1791.18 476.204L1793.06 476.255ZM1885.9 573.697L1960.34 652.342L1960.44 654.377L1939.1 674.583L1888.8 673.202L1887.25 723.652L1865.43 744.314L1832.78 743.262L1788.12 696.075L1789.01 663.583L1803.77 649.606L1805.65 649.658L1825.4 670.523L1825.35 672.397L1819.73 677.715L1819.57 683.652L1847.06 712.702L1852.85 712.704L1856.38 709.362L1858.87 641.582L1859.35 641.126L1907.32 641.975L1863.11 595.269L1863.16 593.394L1884.03 573.644L1885.9 573.697ZM1981.77 674.66L2056.36 753.466L2056.3 755.653L2042.82 768.415C2040.16 770.737 2000.04 777.868 1922.49 789.809L1921.36 790.876L1966.48 838.545L1966.42 840.732L1945.72 860.328L1943.53 860.268L1868.94 781.462L1869 779.276L1882.64 766.363C1884.35 764.742 1914.41 759.315 1972.82 750.079L2003.46 744.508L2003.94 744.052L1958.82 696.383L1959.04 694.044L1979.59 674.598L1981.77 674.66ZM2075.2 773.368L2149.8 852.175L2149.74 854.361L2136.26 867.123C2133.59 869.445 2093.48 876.576 2015.92 888.517L2014.79 889.584L2059.91 937.253L2059.85 939.44L2039.15 959.036L2036.96 958.976L1962.37 880.17L1962.43 877.983L1976.07 865.07C1977.79 863.449 2007.85 858.021 2066.25 848.786L2096.9 843.218L2097.38 842.762L2052.25 795.091L2052.47 792.752L2073.02 773.306L2075.2 773.368Z" fill="white"/>
<path d="M1954.12 30.6137L1966.13 43.2969C1965.06 50.447 1964.36 54.1833 1964.01 54.506L1954.91 63.1264C1954.57 63.4472 1950.8 63.9454 1943.6 64.6211L1931.59 51.9378L1931.6 51.5617L1935.47 47.9018L1935.84 47.915L1937.21 49.353L1951.14 36.1653L1949.78 34.7273L1949.78 34.3512L1953.75 30.6006L1954.12 30.6137ZM1955.46 40.7348L1941.53 53.9225L1945.83 58.4601C1949.81 57.7603 1951.9 57.3196 1952.09 57.1381L1958.38 51.1794L1959.67 45.1766L1955.46 40.7348ZM1975.05 52.7237L1988.45 66.8797L1988.44 67.2529L1984.48 71.0035L1984.1 70.9933L1974.85 61.2151L1970.15 65.6614L1977.86 73.8099L1977.85 74.1831L1974.02 77.8128L1973.61 77.8327L1965.9 69.6842L1960.92 74.4028L1970.17 84.181L1970.16 84.5542L1966.29 88.2141L1965.92 88.2038L1952.52 74.0478L1952.53 73.6746L1974.68 52.7134L1975.05 52.7237ZM1996.91 76.0137L2002.84 82.2769L2002.58 91.9182L2001.27 93.1556L2000.86 93.1161L1996.57 88.5785L1996.48 84.8384L1994.1 82.3168L1989.84 82.1065L1980.86 90.6032L1980.84 94.8666L1983.22 97.3881L1987.05 97.5864L1991.34 102.124L1991.36 102.529L1989.96 103.86L1980.41 103.51L1974.48 97.2471L1974.74 87.7924L1987.36 75.8448L1996.91 76.0137ZM2011.47 91.1974L2024.87 105.353L2024.86 105.727L2020.89 109.477L2020.52 109.467L2011.27 99.6889L2006.57 104.135L2014.28 112.284L2014.27 112.657L2010.44 116.287L2010.03 116.307L2002.32 108.158L1997.33 112.877L2006.59 122.655L2006.58 123.028L2002.71 126.688L2002.34 126.678L1988.94 112.522L1988.95 112.148L2011.09 91.1872L2011.47 91.1974ZM2029.01 109.856L2031.79 112.796L2027.42 132.688L2039.46 121.285L2039.84 121.296L2043.86 125.546L2043.88 125.951L2021.8 146.849L2021.39 146.809L2018.52 143.774L2022.83 124L2010.88 135.313L2010.48 135.274L2006.54 131.119L2006.55 130.746L2028.63 109.848L2029.01 109.856ZM2047.85 129.95L2062.64 145.576L2062.63 145.949L2058.7 149.67L2058.32 149.66L2053.09 144.131L2035.22 161.042L2034.82 160.997L2030.92 156.875L2030.93 156.502L2048.8 139.591L2043.54 134.031L2043.55 133.658L2047.48 129.937L2047.85 129.95ZM2066.24 149.317L2077.04 160.725L2076.8 169.371L2071.85 174.059L2063.42 173.796C2060.5 181.931 2058.94 186.09 2058.75 186.274L2054.15 181.416C2054.03 181.289 2055.52 177.149 2058.63 168.996L2056.52 166.76L2048.14 174.684L2047.77 174.674L2043.84 170.52L2043.85 170.147L2065.87 149.306L2066.24 149.317ZM2066.04 157.746L2060.77 162.737L2065.73 167.977L2069.37 167.797L2070.68 166.56L2071 162.989L2066.04 157.746ZM2091.13 175.553L2093.88 178.458C2094.1 178.693 2091.84 185.001 2087.08 197.382L2077.87 206.093L2077.47 206.054L2073.57 201.932L2073.55 201.526L2077.9 197.413L2071.3 190.447L2066.96 194.56L2066.58 194.55L2062.65 190.396L2062.66 190.023L2071.86 181.311C2084.49 177.238 2090.91 175.319 2091.13 175.553ZM2086.36 182.734L2075.64 186.52L2082.09 193.326L2082.18 193.235L2086.45 182.833L2086.36 182.734ZM2104.08 189.165L2108.11 193.415L2108.13 193.82L2090.1 210.882L2099.51 220.82L2099.5 221.256L2095.66 224.885L2095.26 224.843L2081.62 210.432L2081.63 210.058L2103.7 189.16L2104.08 189.165ZM2122.42 208.406L2131.28 217.765L2131.27 218.139L2127.3 221.892L2126.93 221.882L2124.6 219.421L2110.67 232.609L2113 235.069L2112.98 235.443L2109.12 239.103L2108.75 239.092L2099.89 229.732L2099.9 229.359L2103.76 225.699L2104.14 225.71L2106.34 228.042L2120.28 214.855L2118.07 212.522L2118.08 212.149L2122.04 208.398L2122.42 208.406ZM2135.99 222.878L2150.84 238.565L2150.83 239L2148.14 241.544C2147.61 242.006 2139.63 243.426 2124.19 245.803L2123.96 246.015L2132.95 255.509L2132.94 255.944L2128.81 259.846L2128.38 259.834L2113.53 244.147L2113.54 243.712L2116.26 241.141C2116.6 240.82 2122.58 239.739 2134.21 237.899L2140.31 236.79L2140.41 236.699L2131.42 227.206L2131.47 226.74L2135.56 222.868L2135.99 222.878ZM2154.51 242.31L2167.91 256.466L2167.9 256.839L2163.93 260.592L2163.56 260.582L2154.3 250.804L2149.61 255.25L2157.32 263.399L2157.31 263.772L2153.47 267.402L2153.07 267.422L2145.36 259.273L2140.37 263.992L2149.63 273.77L2149.62 274.143L2145.75 277.803L2145.38 277.793L2131.98 263.64L2131.99 263.266L2154.14 242.305L2154.51 242.31ZM2172.14 260.939L2184.15 273.626C2183.08 280.776 2182.38 284.512 2182.04 284.835L2172.93 293.458C2172.59 293.779 2168.82 294.277 2161.62 294.952L2149.61 282.266L2149.62 281.893L2153.49 278.233L2153.86 278.244L2155.22 279.681L2169.16 266.494L2167.79 265.056L2167.8 264.683L2171.77 260.932L2172.14 260.939ZM2173.48 271.061L2159.55 284.251L2163.84 288.789C2167.83 288.089 2169.91 287.648 2170.1 287.467L2176.4 281.508L2177.68 275.505L2173.48 271.061ZM1915.45 66.8529L1928.85 81.009L1928.84 81.3822L1924.87 85.1328L1924.5 85.1226L1915.24 75.3444L1910.55 79.7907L1918.26 87.9392L1918.25 88.3124L1914.42 91.942L1914.01 91.962L1906.3 83.8135L1901.31 88.5321L1910.57 98.3103L1910.56 98.6835L1906.69 102.343L1906.32 102.333L1892.92 88.1771L1892.93 87.8039L1915.07 66.8427L1915.45 66.8529ZM1937.31 90.143L1943.24 96.4062L1942.97 106.047L1941.67 107.285L1941.26 107.245L1936.97 102.708L1936.88 98.9706L1934.49 96.4461L1930.23 96.2358L1921.26 104.732L1921.23 108.996L1923.62 111.52L1927.45 111.719L1931.74 116.256L1931.76 116.661L1930.35 117.992L1920.81 117.64L1914.88 111.376L1915.14 101.922L1927.76 89.9741L1937.31 90.143ZM1956.28 110.179L1962.29 116.538L1961.94 126.083L1949.32 138.031L1939.86 137.771L1933.84 131.412L1934.1 121.957L1946.72 110.01L1956.28 110.179ZM1949.2 116.272L1940.22 124.768L1940.2 129.032L1942.59 131.556L1946.82 131.734L1955.79 123.238L1955.85 119.006L1953.45 116.479L1949.2 116.272ZM1974.36 129.353L1981.23 136.607L1980.9 145.157L1979.08 146.881L1978.71 146.871L1974.78 142.717L1974.78 139.075L1971.54 135.653L1968.28 135.47L1967.29 136.408L1967.2 139.767L1972.25 145.103L1972.02 153.563L1967.29 158.039L1958.83 157.807L1951.96 150.553L1952.19 142.094L1954.11 140.279L1954.48 140.289L1958.42 144.443L1958.31 148.175L1961.55 151.595L1964.91 151.687L1965.8 150.84L1965.9 147.481L1960.84 142.145L1961.17 133.594L1965.81 129.208L1974.36 129.353ZM1993.42 149.36C1993.47 149.961 1992.07 153.004 1989.22 158.489C1988.94 159.377 1988.53 160.217 1988 160.979L1988.09 161.075C1995.15 157.949 1999.07 156.314 1999.86 156.169L2004.07 160.611L2004.06 160.86L2004.15 160.956L1985.89 167.395L1976.62 176.167L1976.19 176.155L1972.2 171.937L1972.18 171.469L1981.45 162.695L1988.88 144.816L1989.13 144.823L1993.42 149.36ZM2011.2 168.274L2018.07 175.525L2017.74 184.075L2015.92 185.799L2015.55 185.789L2011.61 181.635L2011.62 177.993L2008.38 174.574L2005.12 174.391L2004.13 175.329L2004.04 178.688L2009.09 184.024L2008.86 192.484L2004.13 196.96L1995.67 196.728L1988.8 189.474L1989.03 181.015L1990.95 179.2L1991.32 179.21L1995.26 183.364L1995.15 187.097L1998.39 190.516L2001.75 190.608L2002.64 189.761L2002.74 186.402L1997.69 181.066L1998.01 172.515L2002.65 168.13L2011.2 168.274ZM2025.93 183.898L2040.72 199.521L2040.71 199.895L2036.78 203.615L2036.41 203.605L2031.17 198.077L2013.31 214.987L2012.91 214.942L2009 210.817L2009.01 210.444L2026.88 193.536L2021.61 187.976L2021.62 187.603L2025.55 183.882L2025.93 183.898ZM2044.45 203.144L2057.85 217.3L2057.84 217.673L2053.88 221.424L2053.51 221.413L2044.25 211.632L2039.55 216.079L2047.26 224.227L2047.25 224.6L2043.42 228.23L2043.01 228.25L2035.3 220.101L2030.32 224.82L2039.57 234.598L2039.56 234.971L2035.69 238.631L2035.32 238.621L2021.92 224.465L2021.93 224.092L2044.08 203.131L2044.45 203.144ZM2061.99 221.802L2064.78 224.742L2063.22 238.516L2077.06 237.716L2079.81 240.621L2079.83 241.026L2057.75 261.924L2057.34 261.882L2053.44 257.759L2053.42 257.354L2066.9 244.593L2056.24 245.112L2056.15 245.016C2056.86 238.209 2057.29 234.734 2057.44 234.591L2057.35 234.495L2043.86 247.259L2043.46 247.217L2039.53 243.063L2039.54 242.69L2061.61 221.792L2061.99 221.802ZM2100.95 263.022L2106.97 269.381L2106.61 278.927L2093.99 290.874L2084.53 290.612L2078.51 284.253L2078.77 274.798L2091.4 262.851L2100.95 263.022ZM2093.87 269.115L2084.9 277.612L2084.87 281.875L2087.26 284.4L2091.49 284.578L2100.47 276.081L2100.52 271.85L2098.13 269.325L2093.87 269.115ZM2115.26 277.95L2128.66 292.106L2128.65 292.48L2124.69 296.23L2124.31 296.22L2115.06 286.439L2110.36 290.885L2118.07 299.034L2118.06 299.407L2114.23 303.037L2113.82 303.057L2106.11 294.908L2097.07 303.468L2096.69 303.458L2092.73 299.274L2092.74 298.901L2114.89 277.94L2115.26 277.95ZM1876.98 103.505L1880.91 107.66L1880.9 108.033L1872.12 116.351L1878.71 123.317L1887.5 114.999L1887.9 115.041L1891.8 119.163L1891.82 119.568L1869.77 140.439L1869.37 140.397L1865.47 136.274L1865.45 135.869L1874.46 127.34L1867.87 120.373L1858.85 128.903L1858.48 128.893L1854.55 124.739L1854.56 124.366L1876.61 103.495L1876.98 103.505ZM1895.73 123.442L1899.75 127.692L1899.74 128.065L1884.21 142.765L1884.1 146.865L1886.58 149.485L1890.68 149.598L1906.21 134.898L1906.61 134.94L1910.52 139.062L1910.51 139.435L1893.15 155.859L1883.77 155.607L1877.87 149.376L1878.01 139.856L1895.36 123.432L1895.73 123.442ZM1914.28 142.844L1917.06 145.784L1915.5 159.557L1929.34 158.757L1932.09 161.662L1932.11 162.067L1910.03 182.965L1909.63 182.923L1905.73 178.804L1905.71 178.399L1919.19 165.637L1908.53 166.156L1908.44 166.061C1909.14 159.253 1909.57 155.778 1909.72 155.635L1909.63 155.539L1896.15 168.304L1895.74 168.261L1891.81 164.107L1891.82 163.734L1913.9 142.836L1914.28 142.844ZM1942.74 172.975L1945.49 175.88C1945.71 176.115 1943.44 182.423 1938.68 194.804L1929.48 203.515L1929.07 203.473L1925.17 199.351L1925.15 198.946L1929.5 194.832L1922.91 187.869L1918.56 191.982L1918.19 191.972L1914.26 187.818L1914.27 187.445L1923.47 178.734C1936.09 174.66 1942.52 172.741 1942.74 172.975ZM1937.97 180.156L1927.25 183.942L1933.69 190.748L1933.79 190.657L1938.06 180.255L1937.97 180.156ZM1955.75 186.651L1958.53 189.591L1954.16 209.484L1966.2 198.084L1966.57 198.094L1970.6 202.344L1970.62 202.749L1948.54 223.647L1948.14 223.605L1945.26 220.569L1949.57 200.796L1937.62 212.108L1937.21 212.066L1933.28 207.912L1933.29 207.539L1955.37 186.641L1955.75 186.651ZM1986.84 219.563L1990.77 223.717L1990.76 224.09L1981.97 232.408L1988.57 239.375L1997.36 231.057L1997.76 231.099L2001.66 235.221L2001.68 235.626L1979.63 256.497L1979.23 256.454L1975.33 252.332L1975.31 251.927L1984.32 243.4L1977.72 236.434L1968.71 244.964L1968.34 244.953L1964.41 240.799L1964.42 240.426L1986.46 219.556L1986.84 219.563ZM2005.48 239.061L2018.88 253.217L2018.87 253.59L2014.9 257.343L2014.53 257.333L2005.27 247.555L2000.58 252.001L2008.29 260.15L2008.28 260.523L2004.44 264.153L2004.04 264.173L1996.33 256.024L1991.34 260.743L2000.6 270.521L2000.59 270.894L1996.72 274.554L1996.35 274.544L1982.95 260.388L1982.96 260.014L2005.1 239.053L2005.48 239.061ZM2029.01 264.108L2031.75 267.013C2031.98 267.248 2029.71 273.555 2024.95 285.937L2015.74 294.648L2015.34 294.606L2011.44 290.484L2011.42 290.078L2015.76 285.968L2009.17 279.001L2004.82 283.115L2004.45 283.105L2000.52 278.951L2000.53 278.577L2009.73 269.866C2022.36 265.795 2028.78 263.877 2029 264.111L2029.01 264.108ZM2024.24 271.289L2013.51 275.077L2019.95 281.884L2020.05 281.793L2024.32 271.39L2024.24 271.289ZM2041.96 277.72L2045.98 281.97L2046 282.375L2027.98 299.435L2037.38 309.373L2037.37 309.808L2033.54 313.438L2033.13 313.395L2019.49 298.984L2019.5 298.61L2041.58 277.713L2041.96 277.72ZM2059.53 296.475L2074.32 312.101L2074.31 312.475L2070.38 316.195L2070 316.185L2064.77 310.654L2046.9 327.564L2046.5 327.522L2042.6 323.4L2042.61 323.027L2060.47 306.122L2055.2 300.561L2055.21 300.188L2059.14 296.468L2059.53 296.475ZM2078.07 315.939L2082 320.094L2081.99 320.467L2073.21 328.785L2079.8 335.751L2088.59 327.433L2088.99 327.475L2092.89 331.597L2092.91 332.003L2070.86 352.873L2070.46 352.831L2066.55 348.703L2066.53 348.298L2075.54 339.773L2068.94 332.807L2059.93 341.337L2059.56 341.327L2055.63 337.172L2055.64 336.799L2077.69 315.929L2078.07 315.939Z" fill="white"/>
</g>
<defs>
<filter id="filter0_f_324_3" x="-245" y="344" width="1273.93" height="1124.98" filterUnits="userSpaceOnUse" color-interpolation-filters="sRGB">
<feFlood flood-opacity="0" result="BackgroundImageFix"/>
<feBlend mode="normal" in="SourceGraphic" in2="BackgroundImageFix" result="shape"/>
<feGaussianBlur stdDeviation="125" result="effect1_foregroundBlur_324_3"/>
</filter>
<filter id="filter1_f_324_3" x="1106" y="1479" width="1273.93" height="1124.98" filterUnits="userSpaceOnUse" color-interpolation-filters="sRGB">
<feFlood flood-opacity="0" result="BackgroundImageFix"/>
<feBlend mode="normal" in="SourceGraphic" in2="BackgroundImageFix" result="shape"/>
<feGaussianBlur stdDeviation="125" result="effect1_foregroundBlur_324_3"/>
</filter>
<filter id="filter2_f_324_3" x="1410.1" y="-251" width="1122.68" height="1491.7" filterUnits="userSpaceOnUse" color-interpolation-filters="sRGB">
<feFlood flood-opacity="0" result="BackgroundImageFix"/>
<feBlend mode="normal" in="SourceGraphic" in2="BackgroundImageFix" result="shape"/>
<feGaussianBlur stdDeviation="125" result="effect1_foregroundBlur_324_3"/>
</filter>
</defs>
</svg>
