<svg width="510" height="1241" viewBox="0 0 510 1241" fill="none" xmlns="http://www.w3.org/2000/svg">
<g opacity="0.75" filter="url(#filter0_f_1_378)">
<path d="M808.381 274.196L872.786 757.131L626.026 990.702L250.105 593.553L390.922 147.581L547.894 -1L808.381 274.196Z" fill="#8123DB"/>
<path d="M382.664 461.506L754.091 853.907L627.651 973.589L256.224 581.188L382.664 461.506Z" fill="black"/>
<path d="M383.058 476.255L457.351 554.744L457.3 556.618L437.558 575.305L435.684 575.253L409.398 547.483L319.678 632.408L317.651 632.196L298.053 611.491L298.105 609.616L387.825 524.692L361.39 496.765L361.442 494.89L381.183 476.204L383.058 476.255ZM475.9 573.697L550.341 652.342L550.442 654.377L529.095 674.583L478.795 673.202L477.255 723.652L455.427 744.314L422.781 743.262L378.116 696.075L379.008 663.583L393.774 649.606L395.649 649.658L415.399 670.523L415.347 672.397L409.73 677.715L409.567 683.652L437.064 712.702L442.849 712.704L446.38 709.362L448.867 641.582L449.349 641.126L497.318 641.975L453.109 595.269L453.161 593.394L474.026 573.644L475.9 573.697ZM571.771 674.66L646.365 753.466L646.305 755.653L632.823 768.415C630.155 770.737 590.044 777.868 512.488 789.809L511.361 790.876L556.482 838.545L556.422 840.732L535.72 860.328L533.533 860.268L458.939 781.462L459 779.276L472.643 766.363C474.355 764.742 504.415 759.315 562.823 750.079L593.461 744.508L593.943 744.052L548.822 696.383L549.042 694.044L569.586 674.598L571.771 674.66ZM665.203 773.368L739.797 852.175L739.737 854.361L726.255 867.123C723.588 869.445 683.476 876.576 605.921 888.517L604.793 889.584L649.914 937.253L649.854 939.44L629.152 959.036L626.965 958.976L552.371 880.17L552.431 877.983L566.074 865.07C567.786 863.449 597.846 858.021 656.254 848.786L686.895 843.218L687.377 842.762L642.254 795.091L642.474 792.752L663.019 773.306L665.203 773.368Z" fill="white"/>
<path d="M544.122 30.6137L556.128 43.2969C555.06 50.447 554.355 54.1833 554.015 54.506L544.907 63.1264C544.569 63.4472 540.799 63.9454 533.599 64.6211L521.594 51.9378L521.602 51.5617L525.468 47.9018L525.844 47.915L527.205 49.353L541.138 36.1653L539.776 34.7273L539.784 34.3512L543.746 30.6006L544.122 30.6137ZM545.463 40.7348L531.531 53.9225L535.826 58.4601C539.808 57.7603 541.895 57.3196 542.087 57.1381L548.382 51.1794L549.667 45.1766L545.463 40.7348ZM565.05 52.7237L578.45 66.8797L578.44 67.2529L574.477 71.0035L574.104 70.9933L564.848 61.2151L560.151 65.6614L567.864 73.8099L567.854 74.1831L564.019 77.8128L563.614 77.8327L555.901 69.6842L550.916 74.4028L560.172 84.181L560.161 84.5542L556.295 88.2141L555.922 88.2038L542.522 74.0478L542.532 73.6746L564.677 52.7134L565.05 52.7237ZM586.914 76.0137L592.842 82.2769L592.578 91.9182L591.27 93.1556L590.864 93.1161L586.569 88.5785L586.482 84.8384L584.095 82.3168L579.837 82.1065L570.861 90.6032L570.837 94.8666L573.224 97.3881L577.046 97.5864L581.342 102.124L581.362 102.529L579.956 103.86L570.41 103.51L564.482 97.2471L564.741 87.7924L577.363 75.8448L586.914 76.0137ZM601.468 91.1974L614.867 105.353L614.857 105.727L610.895 109.477L610.521 109.467L601.266 99.6889L596.568 104.135L604.281 112.284L604.271 112.657L600.437 116.287L600.031 116.307L592.318 108.158L587.333 112.877L596.589 122.655L596.579 123.028L592.712 126.688L592.339 126.678L578.94 112.522L578.95 112.148L601.095 91.1872L601.468 91.1974ZM619.008 109.856L621.79 112.796L617.416 132.688L629.463 121.285L629.836 121.296L633.859 125.546L633.879 125.951L611.801 146.849L611.395 146.809L608.521 143.774L612.827 124L600.876 135.313L600.475 135.274L596.543 131.119L596.554 130.746L618.632 109.848L619.008 109.856ZM637.846 129.95L652.637 145.576L652.627 145.949L648.696 149.67L648.323 149.66L643.091 144.131L625.225 161.042L624.824 160.997L620.922 156.875L620.933 156.502L638.798 139.591L633.535 134.031L633.546 133.658L637.476 129.937L637.846 129.95ZM656.238 149.317L667.036 160.725L666.799 169.371L661.846 174.059L653.419 173.796C650.5 181.931 648.943 186.09 648.75 186.274L644.152 181.416C644.031 181.289 645.525 177.149 648.633 168.996L646.515 166.76L638.143 174.684L637.77 174.674L633.838 170.52L633.848 170.147L655.865 149.306L656.238 149.317ZM656.038 157.746L650.765 162.737L655.726 167.977L659.372 167.797L660.68 166.56L660.996 162.989L656.038 157.746ZM681.133 175.553L683.883 178.458C684.105 178.693 681.836 185.001 677.076 197.382L667.873 206.093L667.473 206.054L663.571 201.932L663.551 201.526L667.897 197.413L661.303 190.447L656.957 194.56L656.584 194.55L652.651 190.396L652.662 190.023L661.865 181.311C674.489 177.238 680.911 175.319 681.133 175.553ZM676.364 182.734L665.643 186.52L672.086 193.326L672.182 193.235L676.451 182.833L676.364 182.734ZM694.084 189.165L698.106 193.415L698.126 193.82L680.101 210.882L689.508 220.82L689.496 221.256L685.661 224.885L685.258 224.843L671.616 210.432L671.627 210.058L693.705 189.16L694.084 189.165ZM712.417 208.406L721.276 217.765L721.266 218.139L717.301 221.892L716.928 221.882L714.598 219.421L700.666 232.609L702.995 235.069L702.985 235.443L699.118 239.103L698.745 239.092L689.886 229.732L689.896 229.359L693.762 225.699L694.136 225.71L696.344 228.042L710.276 214.855L708.068 212.522L708.078 212.149L712.041 208.398L712.417 208.406ZM725.994 222.878L740.843 238.565L740.831 239L738.144 241.544C737.612 242.006 729.626 243.426 714.185 245.803L713.962 246.015L722.948 255.509L722.936 255.944L718.814 259.846L718.378 259.834L703.53 244.147L703.542 243.712L706.258 241.141C706.597 240.82 712.581 239.739 724.212 237.899L730.312 236.79L730.408 236.699L721.422 227.206L721.466 226.74L725.556 222.868L725.994 222.878ZM744.509 242.31L757.908 256.466L757.898 256.839L753.933 260.592L753.559 260.582L744.304 250.804L739.606 255.25L747.319 263.399L747.309 263.772L743.475 267.402L743.069 267.422L735.356 259.273L730.371 263.992L739.627 273.77L739.617 274.143L735.75 277.803L735.377 277.793L721.98 263.64L721.991 263.266L744.135 242.305L744.509 242.31ZM762.143 260.939L774.151 273.626C773.083 280.776 772.379 284.512 772.038 284.835L762.928 293.458C762.589 293.779 758.819 294.277 751.62 294.952L739.612 282.266L739.622 281.893L743.488 278.233L743.862 278.244L745.223 279.681L759.155 266.494L757.794 265.056L757.804 264.683L761.767 260.932L762.143 260.939ZM763.483 271.061L749.548 284.251L753.843 288.789C757.825 288.089 759.913 287.648 760.104 287.467L766.399 281.508L767.685 275.505L763.483 271.061ZM505.447 66.8529L518.846 81.009L518.836 81.3822L514.874 85.1328L514.5 85.1226L505.245 75.3444L500.547 79.7907L508.26 87.9392L508.25 88.3124L504.416 91.942L504.01 91.962L496.297 83.8135L491.312 88.5321L500.568 98.3103L500.558 98.6835L496.691 102.343L496.318 102.333L482.919 88.1771L482.929 87.8039L505.074 66.8427L505.447 66.8529ZM527.31 90.143L533.239 96.4062L532.974 106.047L531.667 107.285L531.26 107.245L526.965 102.708L526.881 98.9706L524.492 96.4461L520.233 96.2358L511.257 104.732L511.233 108.996L513.623 111.52L517.446 111.719L521.741 116.256L521.761 116.661L520.355 117.992L510.806 117.64L504.878 111.376L505.138 101.922L517.76 89.9741L527.31 90.143ZM546.275 110.179L552.294 116.538L551.939 126.083L539.317 138.031L529.862 137.771L523.843 131.412L524.102 121.957L536.725 110.01L546.275 110.179ZM539.198 116.272L530.222 124.768L530.198 129.032L532.588 131.556L536.816 131.734L545.792 123.238L545.846 119.006L543.454 116.479L539.198 116.272ZM564.364 129.353L571.23 136.607L570.902 145.157L569.08 146.881L568.707 146.871L564.775 142.717L564.782 139.075L561.543 135.653L558.279 135.47L557.289 136.408L557.197 139.767L562.248 145.103L562.016 153.563L557.286 158.039L548.827 157.807L541.961 150.553L542.193 142.094L544.11 140.279L544.484 140.289L548.416 144.443L548.313 148.175L551.55 151.595L554.908 151.687L555.803 150.84L555.895 147.481L550.844 142.145L551.172 133.594L555.806 129.208L564.364 129.353ZM583.423 149.36C583.467 149.961 582.066 153.004 579.219 158.489C578.942 159.377 578.53 160.217 577.997 160.979L578.087 161.075C585.145 157.949 589.07 156.314 589.863 156.169L594.067 160.611L594.06 160.86L594.151 160.956L575.891 167.395L566.624 176.167L566.188 176.155L562.196 171.937L562.178 171.469L571.447 162.695L578.879 144.816L579.128 144.823L583.423 149.36ZM601.205 168.274L608.068 175.525L607.74 184.075L605.918 185.799L605.545 185.789L601.613 181.635L601.62 177.993L598.383 174.574L595.12 174.391L594.13 175.329L594.037 178.688L599.089 184.024L598.856 192.484L594.127 196.96L585.668 196.728L578.802 189.474L579.034 181.015L580.951 179.2L581.324 179.21L585.256 183.364L585.154 187.097L588.39 190.516L591.749 190.608L592.644 189.761L592.736 186.402L587.685 181.066L588.013 172.515L592.647 168.13L601.205 168.274ZM615.933 183.898L630.721 199.521L630.711 199.895L626.781 203.615L626.407 203.605L621.175 198.077L603.309 214.987L602.908 214.942L599.004 210.817L599.014 210.444L616.877 193.536L611.614 187.976L611.624 187.603L615.555 183.882L615.933 183.898ZM634.453 203.144L647.852 217.3L647.842 217.673L643.88 221.424L643.507 221.413L634.248 211.632L629.551 216.079L637.264 224.227L637.254 224.6L633.419 228.23L633.014 228.25L625.301 220.101L620.316 224.82L629.571 234.598L629.561 234.971L625.695 238.631L625.321 238.621L611.922 224.465L611.932 224.092L634.077 203.131L634.453 203.144ZM651.993 221.802L654.776 224.742L653.217 238.516L667.056 237.716L669.806 240.621L669.826 241.026L647.748 261.924L647.344 261.882L643.442 257.759L643.422 257.354L656.904 244.593L646.243 245.112L646.152 245.016C646.858 238.209 647.286 234.734 647.437 234.591L647.346 234.495L633.861 247.259L633.458 247.217L629.526 243.063L629.536 242.69L651.614 221.792L651.993 221.802ZM690.949 263.022L696.968 269.381L696.613 278.927L683.991 290.874L674.533 290.612L668.514 284.253L668.774 274.798L681.396 262.851L690.949 263.022ZM683.872 269.115L674.896 277.612L674.872 281.875L677.262 284.4L681.49 284.578L690.466 276.081L690.52 271.85L688.131 269.325L683.872 269.115ZM705.261 277.95L718.661 292.106L718.65 292.48L714.688 296.23L714.315 296.22L705.056 286.439L700.359 290.885L708.072 299.034L708.062 299.407L704.227 303.037L703.822 303.057L696.109 294.908L687.066 303.468L686.693 303.458L682.733 299.274L682.743 298.901L704.888 277.94L705.261 277.95ZM466.981 103.505L470.913 107.66L470.903 108.033L462.115 116.351L468.709 123.317L477.496 114.999L477.9 115.041L481.802 119.163L481.822 119.568L459.773 140.439L459.369 140.397L455.468 136.274L455.448 135.869L464.459 127.34L457.865 120.373L448.854 128.903L448.481 128.893L444.548 124.739L444.559 124.366L466.608 103.495L466.981 103.505ZM485.731 123.442L489.753 127.692L489.743 128.065L474.213 142.765L474.1 146.865L476.581 149.485L480.68 149.598L496.21 134.898L496.614 134.94L500.516 139.062L500.506 139.435L483.154 155.859L473.767 155.607L467.869 149.376L468.006 139.856L485.357 123.432L485.731 123.442ZM504.277 142.844L507.06 145.784L505.502 159.557L519.34 158.757L522.09 161.662L522.11 162.067L500.032 182.965L499.628 182.923L495.729 178.804L495.709 178.399L509.191 165.637L498.53 166.156L498.439 166.061C499.145 159.253 499.573 155.778 499.724 155.635L499.633 155.539L486.148 168.304L485.745 168.261L481.813 164.107L481.823 163.734L503.901 142.836L504.277 142.844ZM532.738 172.975L535.487 175.88C535.709 176.115 533.44 182.423 528.681 194.804L519.478 203.515L519.074 203.473L515.172 199.351L515.152 198.946L519.498 194.832L512.907 187.869L508.561 191.982L508.188 191.972L504.256 187.818L504.266 187.445L513.469 178.734C526.093 174.66 532.516 172.741 532.738 172.975ZM527.968 180.156L517.248 183.942L523.69 190.748L523.786 190.657L528.056 180.255L527.968 180.156ZM545.749 186.651L548.531 189.591L544.157 209.484L556.201 198.084L556.574 198.094L560.597 202.344L560.617 202.749L538.539 223.647L538.135 223.605L535.262 220.569L539.568 200.796L527.617 212.108L527.214 212.066L523.281 207.912L523.292 207.539L545.37 186.641L545.749 186.651ZM576.841 219.563L580.773 223.717L580.763 224.09L571.975 232.408L578.569 239.375L587.356 231.057L587.76 231.099L591.662 235.221L591.682 235.626L569.633 256.497L569.229 256.454L565.327 252.332L565.308 251.927L574.316 243.4L567.722 236.434L558.711 244.964L558.338 244.953L554.405 240.799L554.416 240.426L576.465 219.556L576.841 219.563ZM595.478 239.061L608.877 253.217L608.867 253.59L604.902 257.343L604.529 257.333L595.273 247.555L590.576 252.001L598.289 260.15L598.278 260.523L594.444 264.153L594.039 264.173L586.326 256.024L581.341 260.743L590.596 270.521L590.586 270.894L586.719 274.554L586.346 274.544L572.947 260.388L572.957 260.014L595.102 239.053L595.478 239.061ZM619.005 264.108L621.755 267.013C621.977 267.248 619.708 273.555 614.948 285.937L605.745 294.648L605.341 294.606L601.44 290.484L601.42 290.078L605.763 285.968L599.169 279.001L594.823 283.115L594.45 283.105L590.518 278.951L590.528 278.577L599.731 269.866C612.357 265.795 618.78 263.877 619.002 264.111L619.005 264.108ZM614.235 271.289L603.512 275.077L609.955 281.884L610.051 281.793L614.32 271.39L614.235 271.289ZM631.955 277.72L635.978 281.97L635.998 282.375L617.976 299.435L627.382 309.373L627.37 309.808L623.536 313.438L623.132 313.395L609.491 298.984L609.501 298.61L631.579 277.713L631.955 277.72ZM649.526 296.475L664.317 312.101L664.307 312.475L660.377 316.195L660.003 316.185L654.768 310.654L636.902 327.564L636.499 327.522L632.597 323.4L632.607 323.027L650.467 306.122L645.204 300.561L645.214 300.188L649.145 296.468L649.526 296.475ZM668.071 315.939L672.003 320.094L671.993 320.467L663.206 328.785L669.799 335.751L678.587 327.433L678.99 327.475L682.892 331.597L682.912 332.003L660.863 352.873L660.46 352.831L656.553 348.703L656.533 348.298L665.538 339.773L658.944 332.807L649.933 341.337L649.56 341.327L645.628 337.172L645.638 336.799L667.687 315.929L668.071 315.939Z" fill="white"/>
</g>
<defs>
<filter id="filter0_f_1_378" x="0.104736" y="-251" width="1122.68" height="1491.7" filterUnits="userSpaceOnUse" color-interpolation-filters="sRGB">
<feFlood flood-opacity="0" result="BackgroundImageFix"/>
<feBlend mode="normal" in="SourceGraphic" in2="BackgroundImageFix" result="shape"/>
<feGaussianBlur stdDeviation="125" result="effect1_foregroundBlur_1_378"/>
</filter>
</defs>
</svg>
