<svg width="100" height="30" viewBox="0 0 100 30" fill="none" xmlns="http://www.w3.org/2000/svg">
<g clip-path="url(#clip0_1_230)">
<path d="M69.2535 15.199C69.1067 15.1417 68.964 15.0726 68.813 15.0288C67.7332 14.7129 66.6544 14.3961 65.5704 14.0963C65.4411 14.0609 65.2592 14.0802 65.1458 14.1485C64.4791 14.5512 63.8232 14.9715 63.1682 15.3936C62.1435 16.0532 61.1314 16.7331 60.0951 17.3742C59.4684 17.7617 58.967 17.4601 58.9494 16.7272C58.9478 16.6438 58.9411 16.5612 58.9361 16.4601C58.3153 16.5528 57.712 16.6901 57.1045 16.7112C56.8192 16.7213 56.4963 16.5528 56.2459 16.3826C56.0131 16.2242 55.8521 15.9572 55.6468 15.723C55.5859 15.8283 55.5167 15.9311 55.4649 16.0414C54.9793 17.0928 54.1215 17.487 53.0268 17.407C52.4202 17.3624 51.796 17.3194 51.2219 17.1383C50.7948 17.0035 50.4393 16.6429 50.0429 16.3969C49.9161 16.3177 49.7517 16.2158 49.6232 16.2377C48.778 16.3818 47.9461 16.4095 47.115 16.1459C47.0132 16.1139 46.853 16.1813 46.7528 16.2512C45.7273 16.963 44.0001 16.8552 43.4044 15.3531C43.2817 15.044 43.1307 14.7457 42.9772 14.4071C42.5699 14.8612 42.1644 15.2824 41.7948 15.7331C40.9387 16.7777 39.9674 17.6934 38.861 18.46C38.4087 18.7734 38.1259 19.1593 37.9832 19.7195C37.5309 21.497 36.7533 23.1322 35.7795 24.6856C35.1278 25.7252 34.588 26.8372 34.0056 27.9205C33.5458 28.7765 32.8824 29.4125 32.0088 29.8161C31.2604 30.1614 30.3942 30.0106 29.9003 29.4462C29.7826 29.3114 29.6983 29.1118 29.6766 28.9315C29.5665 28.0334 29.9512 27.2668 30.3467 26.5036C31.4014 24.4649 32.8716 22.7531 34.4662 21.139C35.3198 20.2755 36.1884 19.4271 37.0478 18.5695C37.1254 18.4929 37.2222 18.4087 37.2489 18.3109C37.4066 17.733 37.546 17.1501 37.7179 16.4668C36.9677 17.0641 36.1751 16.9816 35.4015 16.8847C34.5604 16.7802 34.2258 16.3624 34.2167 15.4989C34.205 14.3077 34.2117 13.1165 34.21 11.9253C34.21 11.5749 34.2083 11.2244 34.2083 10.8739C34.2083 10.3221 34.3877 10.0458 34.749 10.0366C35.117 10.0273 35.3031 10.2994 35.3031 10.852C35.3031 12.3381 35.3173 13.825 35.2914 15.3102C35.2847 15.7129 35.4449 15.798 35.7912 15.8367C36.5105 15.9176 37.0261 15.712 37.4225 15.049C38.0366 14.0229 38.6324 13.0028 38.8326 11.7998C38.8902 11.4519 39.0946 11.2783 39.4384 11.301C39.7522 11.3221 39.9808 11.6035 39.9115 11.9683C39.7363 12.889 39.5294 13.8048 39.3124 14.7171C39.118 15.5309 38.8927 16.3363 38.75 17.1964C39.1372 16.8611 39.5577 16.557 39.9057 16.1846C40.6867 15.3481 41.4285 14.4745 42.192 13.6211C42.4022 13.3852 42.5048 13.1485 42.383 12.8242C42.2746 12.5361 42.3271 12.2547 42.5291 12.0037C42.5833 11.9363 42.6083 11.8251 42.605 11.7349C42.5466 9.96074 42.993 8.2641 43.4094 6.56827C43.658 5.55481 43.9501 4.54644 44.3164 3.57174C44.4866 3.11682 44.8863 2.75205 45.1658 2.33589C45.3143 2.11433 45.4186 1.86244 45.5646 1.63835C45.6598 1.49262 45.7724 1.29211 45.9134 1.25421C46.4525 1.10762 47.0023 0.978727 47.5564 0.913019C48.7154 0.776544 49.418 1.50019 49.9954 2.36285C50.34 2.87757 50.4343 3.47907 50.4943 4.11004C50.6754 6.0173 50.3233 7.84455 49.8301 9.66251C49.5122 10.8352 49.2544 12.0289 48.8706 13.1788C48.6486 13.8435 48.2298 14.4408 47.8443 15.172C48.4417 15.14 49.0132 15.1097 49.6032 15.0777C49.6282 12.8815 50.2958 10.8773 50.6729 8.82008C50.9024 7.56822 51.0342 6.297 51.3037 5.05442C51.5449 3.94241 51.791 2.83377 52.3184 1.78662C52.8866 0.657764 53.8312 0.22391 54.9225 0.0242534C55.7286 -0.123172 56.311 0.426095 56.7908 1.00569C57.6803 2.07895 57.989 3.37798 58.1242 4.73515C58.3186 6.69127 57.7587 8.56652 57.5259 10.4763C57.3641 11.8032 56.9936 13.0769 56.4403 14.295C56.3069 14.5899 56.6114 15.1813 56.926 15.2192C57.4225 15.279 57.9223 15.3245 58.4212 15.338C58.7325 15.3464 58.9327 15.2361 58.9736 14.8325C59.0804 13.761 59.2565 12.6961 59.4059 11.6296C59.4209 11.5235 59.4417 11.4182 59.4693 11.2581C59.1388 11.3828 58.8593 11.4948 58.5748 11.5925C58.1776 11.729 57.8955 11.6144 57.7888 11.2876C57.682 10.9607 57.8321 10.7029 58.2185 10.5513C58.3478 10.5007 58.473 10.4207 58.6065 10.4013C59.6578 10.248 60.1093 9.5707 60.3345 8.57914C60.5256 7.73589 60.8886 6.9339 61.1306 6.10073C61.2616 5.64916 61.3158 5.17068 61.37 4.70059C61.4134 4.32571 61.5962 4.09067 61.9183 4.09236C62.237 4.09404 62.499 4.33919 62.4514 4.70482C62.3613 5.39474 62.2504 6.08807 62.0676 6.75699C61.8373 7.60023 61.5269 8.42162 61.2482 9.26067C61.8857 9.07956 62.4815 8.90856 63.0789 8.74344C63.1991 8.71056 63.3242 8.68952 63.4477 8.68192C63.774 8.66256 63.9934 8.82094 64.041 9.14359C64.0919 9.489 63.9041 9.67853 63.5754 9.78045C62.7426 10.0382 61.9116 10.3036 61.0922 10.601C60.932 10.6591 60.7467 10.8613 60.7142 11.0256C60.4739 12.2454 60.2369 13.4686 60.0734 14.7011C60.0233 15.0827 60.206 15.4955 60.2778 15.8738C61.4835 15.1223 62.7151 14.3549 63.9567 13.5807C63.3117 13.0592 63.3718 12.7382 64.0168 12.2985C65.0381 11.601 66.0135 10.8352 67.0031 10.093C67.2593 9.90095 67.4963 9.68273 67.7466 9.48226C67.9644 9.30871 68.2022 9.07956 68.4884 9.27415C68.7904 9.47889 69.1134 9.69707 69.1309 10.1402C69.1726 11.1924 68.6277 11.9135 67.8325 12.4855C67.4612 12.7525 67.0674 12.9884 66.5901 13.2993C67.1801 13.4577 67.679 13.5874 68.1755 13.7264C68.6694 13.8646 69.1693 13.9901 69.6524 14.1603C70.1055 14.3195 70.3024 14.6775 70.3366 15.1619C70.3725 15.6733 70.2507 16.1265 69.7659 16.3093C68.9515 16.616 68.1221 16.9158 67.2726 17.0843C66.1178 17.3135 64.938 17.4196 63.7682 17.5713C63.4411 17.6134 63.1674 17.4036 63.144 17.097C63.1165 16.7465 63.29 16.5275 63.633 16.4837C64.4732 16.3758 65.3218 16.3202 66.1554 16.1728C67.0424 16.0161 67.916 15.7845 68.7913 15.5688C68.9607 15.5267 69.1109 15.4071 69.2694 15.3228L69.2535 15.2015V15.199ZM55.5492 13.1763C55.5892 13.1797 55.6285 13.1831 55.6685 13.1864C55.8471 12.5327 56.0648 11.8865 56.1959 11.2235C56.3928 10.2236 56.5163 9.2093 56.6932 8.20595C56.9711 6.63144 57.1805 5.0603 56.7157 3.48244C56.4754 2.66696 56.1817 1.88687 55.4641 1.36541C55.3665 1.29464 55.2196 1.25084 55.1003 1.2601C54.8975 1.27695 54.7015 1.36119 54.4987 1.389C53.9663 1.46313 53.6092 1.8616 53.6409 2.41002C53.7077 3.55405 53.7895 4.69808 53.8695 5.84125C53.9229 6.60785 53.8762 7.40314 54.064 8.13604C54.4979 9.83269 55.0469 11.499 55.5492 13.1772V13.1763ZM52.6288 4.92045C52.6004 4.90952 52.572 4.89855 52.5437 4.88762C52.4953 5.09823 52.4394 5.30799 52.3985 5.52111C51.9754 7.75948 51.5415 9.9953 51.141 12.2378C50.9817 13.13 50.859 14.0331 50.7931 14.937C50.743 15.6227 50.9591 15.8915 51.64 16.0145C52.2733 16.129 52.9266 16.1383 53.5716 16.1754C53.7127 16.1838 53.9263 16.1602 53.9914 16.0675C54.3126 15.6143 54.6522 15.1569 54.8608 14.6497C54.9359 14.4669 54.6622 14.1401 54.5546 13.8764C54.497 13.734 54.4536 13.5866 54.4069 13.44C54.1541 12.6422 53.8795 11.8512 53.6568 11.045C53.353 9.94475 53.0234 8.84536 52.8274 7.7241C52.6672 6.80667 52.6872 5.85727 52.6279 4.92214L52.6288 4.92045ZM45.6105 3.76297C45.568 3.7537 45.5263 3.74528 45.4837 3.73601C45.2718 4.28864 44.9889 4.82527 44.8604 5.39642C44.4832 7.07203 44.0902 8.75018 43.8508 10.4477C43.6497 11.8747 43.6831 13.3195 44.3865 14.6657C44.8054 15.4677 44.8512 15.5343 45.7157 15.4433C46.0603 15.4071 46.5017 14.9505 46.465 14.6725C46.3949 14.1493 46.3023 13.627 46.2631 13.1013C46.1212 11.1646 45.9944 9.22697 45.87 7.28856C45.8025 6.22792 45.7541 5.16563 45.6906 4.10415C45.684 3.98874 45.6373 3.87586 45.6097 3.76213L45.6105 3.76297ZM47.4404 13.3069C47.4729 13.317 47.5063 13.3262 47.5388 13.3364C47.6423 13.0996 47.7775 12.8714 47.8443 12.6245C48.163 11.4401 48.4809 10.2547 48.7638 9.06103C49.075 7.74514 49.4831 6.4419 49.3537 5.05779C49.2869 4.34256 49.4071 3.59448 48.9757 2.94497C48.6294 2.42435 48.2189 2.02082 47.5322 2.06968C47.1275 2.09832 46.7412 2.33083 46.7495 2.55997C46.7604 2.83966 46.7737 3.11851 46.7921 3.39735C46.9181 5.33495 47.0466 7.2734 47.1734 9.21099C47.2627 10.5757 47.3511 11.9413 47.4404 13.306V13.3069ZM36.5789 20.722L36.4328 20.6192C36.2626 20.8163 36.1024 21.0227 35.9205 21.2089C34.3326 22.8356 32.7306 24.4531 31.62 26.4741C31.2987 27.0579 31.0159 27.6704 30.7906 28.2971C30.6279 28.7487 30.8415 28.9483 31.3188 28.8775C31.4656 28.8556 31.6125 28.7925 31.7435 28.7183C32.2733 28.4176 32.7031 28.0149 33.0051 27.4715C33.8796 25.8979 34.7774 24.3377 35.6352 22.7548C35.9906 22.0994 36.2668 21.4002 36.5789 20.7211V20.722ZM67.8693 10.9725C67.8401 10.9388 67.81 10.9051 67.7808 10.8722C67.4813 11.1325 67.1809 11.3937 66.8813 11.654C66.9155 11.6928 66.9498 11.7324 66.9839 11.7711C67.2793 11.5049 67.5739 11.2387 67.8693 10.9725Z" fill="white"/>
</g>
<defs>
<clipPath id="clip0_1_230">
<rect width="40.6849" height="30" fill="white" transform="translate(29.6575)"/>
</clipPath>
</defs>
</svg>
