<svg width="100" height="30" viewBox="0 0 100 30" fill="none" xmlns="http://www.w3.org/2000/svg">
<g clip-path="url(#clip0_1_196)">
<path d="M44.1359 5.06032L44.7812 5.40112L48.4716 6.95209C48.805 7.13438 49.1757 7.23801 49.5553 7.25496C49.9349 7.27192 50.3133 7.20175 50.6616 7.04992C51.4859 6.72103 52.3289 6.44076 53.186 6.21051L52.801 5.72614C51.9001 6.02276 51.0261 6.29572 50.163 6.59868C49.8047 6.75207 49.4009 6.76055 49.0365 6.62229C48.7588 6.50714 45.963 5.32065 44.3695 4.64221C43.7494 4.37714 43.3123 4.19097 43.2744 4.16888C42.5913 3.83912 42.8563 3.27586 43.2965 3.11177C43.4543 3.04866 46.3401 1.95053 47.6212 1.4835C48.4369 1.18688 49.2589 0.907622 50.0794 0.628357C50.1741 0.596802 50.7105 0.36487 51.5625 0.757733C52.7269 1.29891 53.9292 1.75646 55.1093 2.26135C55.5968 2.46961 56.0796 2.68735 56.564 2.90192L57.4476 3.2869C57.9793 3.51568 58.1228 4.12154 57.4476 4.32666C56.9916 4.4655 56.3605 4.66272 56.0276 4.76685C56.3211 5.11396 56.5688 5.42162 56.8291 5.71351C57.2756 6.22471 57.8262 6.98679 57.8988 7.0972C58.0802 7.3749 57.9272 7.65736 57.6132 7.65572H57.4791C57.9619 8.64501 58.4968 9.82994 58.9906 11.1363C59.2226 10.3474 59.737 10.3474 60.0667 10.4247C60.6331 10.5589 60.7404 11.3951 60.7199 12.509C60.7056 13.2758 60.9991 13.94 61.474 14.325C61.8574 14.6406 62.6416 15.5509 62.0641 16.272C61.9625 16.3969 61.83 16.4932 61.6797 16.5513C61.5295 16.6094 61.3667 16.6274 61.2074 16.6033C61.4819 17.4584 62.0373 19.5269 61.5229 21.0211C61.2674 21.7658 60.9629 21.6443 60.6867 21.2151C60.5479 22.5673 60.133 25.0018 58.9133 26.4959C58.3327 27.2027 57.9762 27.0939 57.8089 26.6111C54.516 29.3375 49.6234 29.0993 49.6234 29.0993C46.0545 29.0046 43.7257 27.9948 42.1984 26.6931C42.017 27.1034 41.6699 27.1665 41.1239 26.4959C40.111 25.2605 39.6535 23.3688 39.4484 21.9867C39.3931 21.7437 39.3505 21.5133 39.3174 21.3177C39.3166 21.3035 39.3166 21.2893 39.3174 21.2751C39.0508 21.6537 38.7636 21.7295 38.5206 21.0211C38.0047 19.5222 38.5601 17.4537 38.8362 16.6033C38.6769 16.6274 38.5141 16.6094 38.3638 16.5513C38.2136 16.4932 38.0811 16.3969 37.9795 16.272C37.402 15.5509 38.1861 14.6327 38.5695 14.325C39.0429 13.94 39.3379 13.2758 39.3237 12.509C39.3032 11.3951 39.4105 10.5589 39.9769 10.4247C40.283 10.3506 40.7468 10.349 40.9977 10.9754C41.6288 9.39762 42.2962 7.99968 42.8469 6.92679C43.2117 6.24209 43.6612 5.60599 44.1848 5.0335L43.8551 4.80314C43.3277 5.39562 42.8717 6.04802 42.4966 6.74692C41.8781 7.95077 41.3496 9.08522 40.8889 10.1944C40.7432 10.0966 40.5779 10.0317 40.4046 10.0045C40.2313 9.9772 40.0541 9.98822 39.8854 10.0366C39.0082 10.2465 38.9087 11.3509 38.9293 12.5137C38.9403 13.1354 38.7131 13.6971 38.3234 14.0142C37.6734 14.5349 36.9634 15.6314 37.6718 16.5166C37.8369 16.7254 38.0639 16.8767 38.3202 16.9488C38.0047 18.0833 37.6891 19.7999 38.1499 21.1489C38.2114 21.3303 38.4007 21.8825 38.8614 21.9488C38.9216 21.9575 38.9827 21.9575 39.0429 21.9488C39.2811 23.484 39.7576 25.4451 40.8273 26.7499C41.2218 27.2233 41.5847 27.4394 41.9318 27.3905C42.0517 27.3739 42.1652 27.3266 42.2615 27.2533C44.0807 28.6606 46.5515 29.4164 49.606 29.4968C49.636 29.4968 49.7639 29.4968 49.9642 29.4968C51.1302 29.4968 54.8553 29.3186 57.711 27.187C57.8132 27.2877 57.9437 27.3548 58.085 27.3795C58.4463 27.4442 58.8186 27.2359 59.221 26.7484C60.316 25.4136 60.7988 23.3735 60.9991 21.9456C61.0577 21.9552 61.1174 21.9552 61.1759 21.9456C61.6492 21.8888 61.8385 21.3287 61.9 21.1457C62.3734 19.7952 62.0483 18.0785 61.7312 16.9441C61.9872 16.8713 62.2136 16.7194 62.3781 16.5102C63.0865 15.6267 62.3781 14.5317 61.728 14.0095C61.3368 13.6939 61.1096 13.1306 61.1206 12.509C61.1427 11.3462 61.0418 10.2417 60.1629 10.0319C59.978 9.97649 59.7823 9.96742 59.593 10.0054C59.4037 10.0433 59.2267 10.1272 59.0774 10.2496C58.7619 9.48599 58.429 8.70814 58.0566 7.92553C58.155 7.86194 58.2359 7.77455 58.2917 7.67151C58.3551 7.5474 58.3834 7.40822 58.3734 7.26918C58.3634 7.13007 58.3155 6.99644 58.2349 6.88264C58.1481 6.75012 57.5833 5.97227 57.1304 5.45477C56.9916 5.29699 56.8559 5.13921 56.7139 4.96407L57.5691 4.70059C58.0077 4.56647 58.2807 4.26512 58.3011 3.89277C58.3232 3.49201 58.0519 3.11177 57.6101 2.92244L56.22 2.31184C55.9045 2.16984 55.5889 2.02942 55.2734 1.89374C54.8395 1.70913 54.3977 1.52769 53.9702 1.35098C53.2318 1.04963 52.4697 0.737222 51.7376 0.404312C51.1874 0.124592 50.5493 0.0724575 49.9611 0.259159C49.1217 0.546313 48.2997 0.825572 47.495 1.11747C46.2943 1.55609 43.6878 2.54851 43.1687 2.7473C42.9809 2.81003 42.8153 2.92581 42.6918 3.08063C42.5683 3.23547 42.4923 3.42273 42.473 3.61982C42.473 3.79652 42.5108 4.23829 43.1135 4.5286C43.1419 4.54281 43.2713 4.59645 43.8267 4.84416L44.1359 5.06032Z" fill="white"/>
<path d="M60.3869 14.8473C60.366 14.8635 60.3409 14.8733 60.3146 14.8755C60.2882 14.8777 60.2619 14.8724 60.2385 14.86C60.0718 14.773 59.925 14.652 59.8078 14.5049C59.6882 14.3568 59.5982 14.187 59.5427 14.0048C59.487 13.8267 59.4604 13.6407 59.4638 13.4541C59.4655 13.2691 59.5002 13.0857 59.5664 12.9129C59.5776 12.8843 59.5983 12.8605 59.625 12.8454C59.6517 12.8302 59.6827 12.8247 59.713 12.8297C59.7433 12.8346 59.7709 12.8498 59.7914 12.8727C59.8118 12.8957 59.8237 12.9248 59.8251 12.9555V12.9728C59.8251 13.1211 59.8441 13.2884 59.8646 13.4352C59.8836 13.5838 59.9153 13.7305 59.9593 13.8738C60.0021 14.0144 60.0615 14.1495 60.136 14.2761C60.2137 14.4061 60.3024 14.5291 60.4011 14.6438L60.4105 14.658C60.4323 14.6863 60.442 14.7221 60.4376 14.7575C60.4332 14.793 60.415 14.8253 60.3869 14.8473Z" fill="white"/>
<path d="M57.2563 7.21075L57.1648 7.1934C56.8761 7.13972 56.4154 7.03564 56.286 7.01829C56.0257 6.96938 55.9815 7.01829 55.8963 7.27068C55.8111 7.52314 55.6975 7.77873 55.565 8.09275C55.5461 8.13377 55.5066 8.29942 55.3883 8.15112C54.6688 7.2549 53.9998 6.41556 53.3119 5.55883C54.1166 5.31111 54.6531 5.18174 55.5066 4.94193C55.9721 5.55725 57.1617 6.73427 57.37 7.10822C57.4189 7.19496 57.3873 7.24075 57.2563 7.21075Z" fill="white"/>
<path d="M56.9967 10.6014C55.9286 10.5352 51.9163 10.259 50.2849 10.2748C48.6535 10.2906 43.8538 10.5352 42.7857 10.6014C42.7088 10.611 42.6311 10.5904 42.569 10.5439C42.5069 10.4974 42.4653 10.4287 42.4528 10.3522C42.4507 10.2896 42.4703 10.2283 42.5083 10.1785C42.5462 10.1288 42.6002 10.0937 42.6611 10.0792C43.1833 9.9214 47.4906 9.39444 50.0766 9.39444C52.0946 9.39444 56.607 9.92296 57.1292 10.0792C57.1901 10.0937 57.2441 10.1288 57.282 10.1785C57.32 10.2283 57.3396 10.2896 57.3375 10.3522C57.3251 10.4302 57.2823 10.5003 57.2185 10.547C57.1546 10.5937 57.0749 10.6132 56.9967 10.6014Z" fill="white"/>
<path d="M54.5509 11.2011C54.5451 11.1119 54.5564 11.0225 54.584 10.9376C55.3161 10.9376 55.8968 10.9897 56.1808 11.0197C56.1947 11.0919 56.1995 11.1656 56.195 11.239C56.195 11.6129 55.8132 11.908 55.3587 11.897C54.9043 11.8859 54.5367 11.5751 54.5509 11.2011Z" fill="white"/>
<path d="M44.0779 11.239C44.0734 11.1656 44.0782 11.0919 44.0921 11.0197C44.3761 10.9897 44.9568 10.9408 45.6889 10.9376C45.7165 11.0225 45.7277 11.1119 45.722 11.2011C45.722 11.5751 45.367 11.8874 44.9141 11.897C44.4613 11.9064 44.0858 11.6129 44.0779 11.239Z" fill="white"/>
<path d="M40.4688 14.0049C40.4134 14.1871 40.3234 14.3569 40.2037 14.5051C40.0865 14.6521 39.9398 14.773 39.773 14.8601C39.7411 14.877 39.7039 14.8806 39.6694 14.8703C39.6348 14.86 39.6057 14.8364 39.5884 14.8049C39.5755 14.782 39.5699 14.7557 39.5721 14.7295C39.5744 14.7034 39.5844 14.6785 39.601 14.6581L39.6105 14.6439C39.7091 14.5291 39.7978 14.4061 39.8755 14.2763C39.9501 14.1496 40.0094 14.0146 40.0523 13.8739C40.0962 13.7307 40.1279 13.5839 40.1469 13.4353C40.1675 13.2775 40.1785 13.1197 40.1864 12.973V12.9556C40.1874 12.938 40.1919 12.9207 40.1995 12.9049C40.2072 12.889 40.218 12.8748 40.2312 12.863C40.2444 12.8513 40.2597 12.8423 40.2764 12.8365C40.2931 12.8307 40.3108 12.8283 40.3284 12.8294C40.3537 12.831 40.3781 12.8397 40.3987 12.8545C40.4194 12.8693 40.4354 12.8896 40.4451 12.913C40.5113 13.0859 40.5461 13.2691 40.5477 13.4542C40.5512 13.6408 40.5245 13.8268 40.4688 14.0049Z" fill="white"/>
<path d="M49.9026 26.537H49.8552C42.0547 26.3792 42.5328 19.7526 42.5328 19.7526C42.5833 16.4629 45.1156 14.68 47.659 13.7965L47.8088 13.7412C48.4163 13.5235 48.3105 13.1764 47.8404 13.1322L47.4791 13.096C47.3325 13.0909 47.1919 13.0364 47.0801 12.9413C46.9684 12.8462 46.8921 12.7161 46.8638 12.5721C46.8056 12.3766 46.7997 12.1692 46.8468 11.9707C46.8939 11.7722 46.9922 11.5894 47.1319 11.4409C47.6952 10.8334 48.552 10.8002 49.2777 11.3541C49.3676 11.4219 49.4608 11.4882 49.5538 11.5529C49.6527 11.6201 49.7696 11.656 49.8891 11.656C50.0087 11.656 50.1255 11.6201 50.2244 11.5529C50.319 11.4914 50.4106 11.4219 50.5005 11.3541C51.2247 10.8002 52.0783 10.8334 52.6463 11.4409C52.7854 11.5899 52.8833 11.7726 52.9303 11.971C52.9773 12.1693 52.9719 12.3765 52.9145 12.5721C52.8861 12.7161 52.8098 12.8462 52.6981 12.9413C52.5864 13.0364 52.4458 13.0909 52.2992 13.096L51.9379 13.1322C51.4645 13.1764 51.4266 13.5598 51.9947 13.746L52.1193 13.787C54.6626 14.669 57.195 16.4692 57.2455 19.7526C57.2455 19.7526 57.7251 26.395 49.9026 26.537ZM50.8366 12.5816C51.211 12.5485 51.5811 12.4771 51.941 12.3686C51.9773 12.3591 52.1335 12.2708 52.1177 12.1461C52.0578 11.7548 51.6807 11.7501 51.4267 11.8211C51.1435 11.893 50.889 12.0499 50.6978 12.2708C50.4863 12.5485 50.6741 12.6005 50.8366 12.5816ZM51.9111 21.7106C51.5955 21.7311 51.2894 21.7832 50.9786 21.7989C50.8539 21.7989 50.7293 21.81 50.6046 21.8116C50.2102 21.8116 49.8851 21.7973 49.7227 21.7911C49.4891 21.7815 49.2493 21.7721 49.1625 21.7658C49.0048 21.7547 48.8565 21.7374 48.7034 21.7185C48.3973 21.6806 48.0975 21.6064 47.7899 21.5607C47.741 21.5607 47.6936 21.6064 47.6826 21.6775C47.6773 21.7021 47.6791 21.7278 47.6877 21.7516C47.6964 21.7753 47.7116 21.7961 47.7315 21.8116C47.8742 21.8896 48.025 21.9521 48.1811 21.9977C48.339 22.0435 48.4967 22.0798 48.6435 22.1114C48.7902 22.1429 48.959 22.165 49.1168 22.1839C49.2746 22.2029 49.8536 22.2233 50.0145 22.2249C50.1755 22.2265 50.3301 22.2391 50.4879 22.2249C50.6456 22.2107 50.8034 22.2076 50.9612 22.1855C51.119 22.1634 51.2768 22.1397 51.4345 22.105C51.5972 22.0682 51.7557 22.0154 51.9079 21.9473C51.9303 21.9341 51.9488 21.9152 51.9613 21.8924C51.9738 21.8696 51.9799 21.8438 51.9789 21.8179C51.9994 21.7626 51.9615 21.7058 51.9111 21.7106ZM54.456 20.0729C54.1491 19.9073 53.826 19.7736 53.4919 19.6737C53.1638 19.5758 52.8325 19.497 52.4995 19.426C52.1666 19.3549 51.8306 19.3045 51.4945 19.2682C51.1585 19.2319 49.9167 19.1672 49.5838 19.1593C49.2509 19.1514 48.9054 19.123 48.5646 19.1325C48.2238 19.1419 47.8845 19.1609 47.5438 19.2019C47.203 19.243 46.8638 19.2887 46.5245 19.3597C46.1787 19.4285 45.8406 19.531 45.5147 19.6658C45.4682 19.6934 45.43 19.7329 45.4042 19.7805C45.3784 19.828 45.3658 19.8816 45.368 19.9356C45.368 20.0933 45.4516 20.2022 45.5573 20.1959C46.2216 20.1597 46.8811 20.0586 47.5406 20.0382C47.8073 20.0287 48.0723 20.0224 48.339 20.0207C49.172 20.0413 49.8647 20.0713 50.2133 20.0854C50.7103 20.1107 51.2342 20.1391 51.4108 20.1533C51.739 20.1801 52.0641 20.2212 52.3907 20.2637C53.0439 20.3506 53.686 20.5114 54.3408 20.6093C54.4465 20.6251 54.5459 20.5162 54.5633 20.3679C54.5766 20.3136 54.5735 20.2566 54.5544 20.2041C54.5353 20.1516 54.501 20.1059 54.456 20.0729ZM49.0805 12.2708C48.8892 12.0499 48.6348 11.893 48.3516 11.8211C48.0975 11.7501 47.7205 11.7548 47.659 12.1461C47.6447 12.2708 47.8009 12.3591 47.8373 12.3686C48.1971 12.4771 48.5672 12.5485 48.9416 12.5816C49.1042 12.6005 49.2919 12.5485 49.0805 12.2708Z" fill="white"/>
</g>
<defs>
<clipPath id="clip0_1_196">
<rect width="25.4348" height="30" fill="white" transform="translate(37.2826)"/>
</clipPath>
</defs>
</svg>
