<svg width="142" height="115" viewBox="0 0 142 115" fill="none" xmlns="http://www.w3.org/2000/svg">
<path d="M69.525 0L142 52.3362V114.685H41.665L0 39.6618V0H69.525Z" fill="#8123DB"/>
<path d="M40.7892 80.3621H139.925V112.31H40.7892V80.3621Z" fill="black"/>
<path d="M42.8042 82.17H62.6334L62.8767 82.4133V87.4014L62.6334 87.6447H55.6176V110.314L55.3337 110.558H50.1029L49.8596 110.314V87.6447H42.8042L42.5609 87.4014V82.4133L42.8042 82.17ZM67.4983 82.0889H87.3672L87.651 82.3322V87.7258L81.1227 94.255L87.651 100.824V106.34L83.3934 110.558H71.4721L67.255 106.34V102.609L67.4983 102.366H72.7697L73.0129 102.609V104.028L73.7836 104.799H81.1227L81.8526 104.028V103.136L73.1346 94.2548V94.1331L79.298 87.8473H67.4983L67.255 87.604V82.332L67.4983 82.0889ZM93.044 82.0483H112.953L113.237 82.3322V85.7387C113.21 86.3871 109.101 92.6322 100.91 104.474V104.759H112.953L113.237 105.043V110.274L112.953 110.558H93.044L92.7605 110.274V106.827C92.7605 106.394 95.8287 101.703 101.965 92.7545L105.087 87.9686V87.847H93.044L92.7601 87.5225V82.3317L93.044 82.0483ZM117.981 82.0483H137.891L138.175 82.3322V85.7387C138.148 86.3871 134.039 92.6322 125.848 104.474V104.759H137.891L138.175 105.043V110.274L137.891 110.558H117.981L117.698 110.274V106.827C117.698 106.394 120.766 101.703 126.902 92.7545L130.025 87.9686V87.847H117.981L117.698 87.5225V82.3317L117.981 82.0483Z" fill="white"/>
<path d="M3.73689 4.49024H6.94116C7.75922 5.53448 8.16826 6.09966 8.16826 6.18578V8.48688C8.16826 8.57251 7.75922 9.13769 6.94116 10.1824H3.73689L3.68772 10.134V9.15702L3.73689 9.10858H4.10018V5.5883H3.73689L3.68772 5.53986V4.53868L3.73689 4.49024ZM5.25462 5.5883V9.10858H6.401C6.81003 8.48957 7.01455 8.15584 7.01455 8.1074V6.51682L6.37678 5.5883H5.25462ZM9.3227 4.49024H12.8991L12.9475 4.53868V5.53986L12.8991 5.5883H10.4287V6.77518H12.4873L12.5358 6.82363V7.79251L12.4873 7.84903H10.4287V9.10858H12.8991L12.9475 9.15702V10.134L12.8991 10.1824H9.3227L9.27426 10.134V4.53868L9.3227 4.49024ZM15.1837 4.51446H16.766L18.0174 5.76593V6.09623L17.9609 6.14541H16.8145L16.3051 5.68519H15.6681L15.103 6.22615V8.49422L15.6681 9.03518H16.3051L16.8137 8.55074H17.9601L18.0166 8.59918V8.95444L16.766 10.1824H15.1837L13.9566 8.95517V5.76593L15.1837 4.51446ZM19.0426 4.49024H22.619L22.6674 4.53868V5.53986L22.619 5.5883H20.1486V6.77518H22.2073L22.2557 6.82363V7.79251L22.2073 7.84903H20.1486V9.10858H22.619L22.6674 9.15702V10.134L22.619 10.1824H19.0426L18.9942 10.134V4.53868L19.0426 4.49024ZM23.7412 4.50638H24.4839L26.5829 7.59874V4.55483L26.6313 4.50638H27.705L27.7615 4.55483V10.1332L27.705 10.1824H26.9381L24.8464 7.11429V10.134L24.7906 10.1824H23.7412L23.6927 10.134V4.55556L23.7412 4.50638ZM28.7949 4.53061H32.7426L32.791 4.57905V5.57216L32.7426 5.6206H31.346V10.1347L31.2894 10.1824H30.248L30.1996 10.134V5.61987H28.7949L28.7464 5.57142V4.57832L28.7949 4.53061ZM33.6952 4.52253H36.5773L37.6994 5.64482V6.8963L36.6015 7.98629C37.3173 9.40145 37.6752 10.1335 37.6752 10.1824H36.4481C36.4158 10.1824 36.0525 9.46114 35.3583 8.01859H34.7931V10.134L34.7447 10.1824H33.6952L33.6468 10.134V4.57098L33.6952 4.52253ZM34.7931 5.61253V6.94474H36.1171L36.5531 6.43608V6.10578L36.1171 5.61326L34.7931 5.61253ZM40.3312 4.51446H41.0652C41.1244 4.51446 41.6787 5.61253 42.7282 7.80866V10.134L42.6724 10.1824H41.631L41.5745 10.134V9.03591H39.8146V10.134L39.7661 10.1824H38.7166L38.6682 10.134V7.80866C39.7177 5.61253 40.272 4.51446 40.3312 4.51446ZM40.6865 6.05586L39.8388 7.96207H41.5583V7.93784L40.7107 6.0566L40.6865 6.05586ZM43.7784 4.50565H44.8522L44.9087 4.55409V9.10858H47.4194L47.4759 9.1651V10.134L47.4194 10.1824H43.7784L43.73 10.134V4.55556L43.7784 4.50565ZM48.6546 4.4895H51.0192L51.0677 4.53795V5.53986L51.0192 5.5883H50.3976V9.10858H51.0192L51.0677 9.15702V10.134L51.0192 10.1824H48.6546L48.6061 10.134V9.15702L48.6546 9.10858H49.2439V5.5883H48.6546L48.6061 5.53986V4.53868L48.6546 4.4895ZM52.2955 4.50565H56.2586L56.3151 4.56217V5.24112C56.3097 5.3703 55.4917 6.6137 53.8609 8.97132V9.02784H56.2594L56.3159 9.08436V10.1259L56.2594 10.1824H52.2962L52.2397 10.1259V9.43961C52.2397 9.35398 52.8506 8.42008 54.0723 6.63793L54.6939 5.68519V5.66097H52.2955L52.239 5.59638V4.5629L52.2955 4.50565ZM57.22 4.4895H60.7964L60.8448 4.53795V5.53986L60.7964 5.5883H58.3261V6.77518H60.3847L60.4331 6.82363V7.79251L60.3847 7.84903H58.3261V9.10858H60.7964L60.8448 9.15702V10.134L60.7964 10.1824H57.2208L57.1723 10.134V4.53868L57.22 4.4895ZM61.9266 4.4895H65.1316C65.9497 5.53374 66.3587 6.09892 66.3587 6.18505V8.48688C66.3587 8.57251 65.9497 9.13769 65.1316 10.1824H61.9266L61.8782 10.134V9.15702L61.9266 9.10858H62.2899V5.5883H61.9266L61.8782 5.53986V4.53868L61.9266 4.4895ZM63.4444 5.58757V9.10858H64.5907C64.9998 8.48957 65.2043 8.15584 65.2043 8.1074V6.51682L64.5665 5.5883L63.4444 5.58757ZM3.68772 14.2158H7.26408L7.31252 14.2642V15.2654L7.26408 15.3138H4.79373V16.5007H6.85235L6.90079 16.5492V17.518L6.85235 17.5746H4.79373V18.8341H7.26408L7.31252 18.8826V19.8595L7.26408 19.908H3.68772L3.63928 19.8595V14.2642L3.68772 14.2158ZM9.54875 14.24H11.1311L12.3824 15.4915V15.8218L12.3259 15.8709H11.1795L10.6709 15.4107H10.0331L9.46802 15.9517V18.2197L10.0331 18.7607H10.6709L11.1795 18.2763H12.3259L12.3824 18.3247V18.68L11.1311 19.908H9.54875L8.32165 18.6807V15.4915L9.54875 14.24ZM14.6105 14.24H16.2171L17.4442 15.4915V18.6807L16.2171 19.908H14.6105L13.3834 18.6807V15.4915L14.6105 14.24ZM14.5298 15.9517V18.2197L15.0949 18.7607H15.7327L16.2897 18.2197V15.9517L15.7327 15.4107H15.0942L14.5298 15.9517ZM19.447 14.2481H21.2796L22.3775 15.3704V15.8306L22.3291 15.879H21.2796L20.7952 15.4188H19.9307L19.4947 15.8306V16.0809L19.9307 16.5169H21.2789L22.3768 17.6149V18.8099L21.2789 19.908H19.4463L18.3484 18.8099V18.3254L18.3968 18.277H19.4463L19.9307 18.7614H20.7945L21.2304 18.3254V18.0994L20.7945 17.6634H19.4463L18.3484 16.5411V15.3704L19.447 14.2481ZM24.5169 14.2319C24.6025 14.3019 24.8313 14.8725 25.2031 15.9436C25.2865 16.0926 25.3464 16.2535 25.3807 16.4207H25.4049C25.8786 15.0858 26.1557 14.3565 26.2365 14.2326H27.3586L27.3909 14.2649H27.4151L25.97 17.5107V19.8522L25.9135 19.9087H24.8479L24.7833 19.8522V17.51L23.3382 14.2642L23.3705 14.2319H24.5169ZM29.28 14.2481H31.1118L32.2098 15.3704V15.8306L32.1613 15.879H31.1118L30.6275 15.4188H29.7636L29.3277 15.8306V16.0809L29.7636 16.5169H31.1118L32.2098 17.6149V18.8099L31.1118 19.908H29.2793L28.1813 18.8099V18.3254L28.2298 18.277H29.2793L29.7636 18.7614H30.6275L31.0634 18.3254V18.0994L30.6275 17.6634H29.2793L28.1813 16.5411V15.3704L29.28 14.2481ZM33.2196 14.2561H37.1666L37.2151 14.3046V15.2977L37.1666 15.3461H35.77V19.8602L35.7135 19.908H34.6713L34.6229 19.8595V15.3461H33.2182L33.1697 15.2977V14.3046L33.2196 14.2561ZM38.12 14.2158H41.6963L41.7448 14.2642V15.2654L41.6963 15.3138H39.2252V16.5007H41.2839L41.3323 16.5492V17.518L41.2839 17.5746H39.2252V18.8341H41.6956L41.744 18.8826V19.8595L41.6956 19.908H38.1192L38.0708 19.8595V14.2642L38.12 14.2158ZM42.8185 14.2319H43.5612L45.2 16.177L46.8389 14.2319H47.5728L47.6293 14.2804V19.8588L47.5728 19.9072H46.5313L46.4748 19.8588V16.4523L45.1993 17.9386H45.1751C44.357 16.9859 43.948 16.4904 43.948 16.4523H43.9238V19.8595L43.8672 19.908H42.8177L42.7693 19.8595V14.2811L42.8185 14.2319ZM53.2246 14.24H54.8312L56.0583 15.4915V18.6807L54.8304 19.908H53.2239L51.9968 18.6807V15.4915L53.2246 14.24ZM53.1439 15.9517V18.2197L53.709 18.7607H54.3468L54.9038 18.2197V15.9517L54.3468 15.4107H53.709L53.1439 15.9517ZM57.019 14.2158H60.5953L60.6437 14.2642V15.2654L60.5953 15.3138H58.1242V16.5007H60.1829L60.2313 16.5492V17.518L60.1829 17.5746H58.1242V19.8595L58.0758 19.908H57.019L56.9705 19.8595V14.2642L57.019 14.2158ZM3.72001 23.9655H4.76951L4.81795 24.014V26.2343H6.57787V24.014L6.63438 23.9655H7.6758L7.73231 24.014V29.585L7.6758 29.6335H6.63438L6.57787 29.585V27.3082H4.81795V29.585L4.76951 29.6335H3.72001L3.67157 29.585V24.014L3.72001 23.9655ZM8.74144 23.9817H9.81516L9.8636 24.0301V27.9541L10.3957 28.4862H11.0577L11.5898 27.9541V24.0301L11.6463 23.9817H12.6877L12.7361 24.0301V28.4143L11.5186 29.6335H9.94433L8.69301 28.4143V24.0301L8.74144 23.9817ZM13.666 23.9574H14.4087L16.0475 25.9026L17.6864 23.9574H18.4203L18.4768 24.0059V29.5843L18.4203 29.6328H17.3796L17.3231 29.5843V26.1778L16.0475 27.6642H16.0233C15.2053 26.7114 14.7962 26.216 14.7962 26.1778H14.772V29.585L14.7155 29.6335H13.666L13.6176 29.585V24.0066L13.666 23.9574ZM21.2708 23.9655H22.0047C22.0639 23.9655 22.6183 25.0636 23.6678 27.2597V29.585L23.6112 29.6335H22.5698L22.5133 29.585V28.487H20.7541V29.585L20.7057 29.6335H19.6562L19.6078 29.585V27.2597C20.6573 25.0636 21.2116 23.9655 21.2708 23.9655ZM21.626 25.5069L20.7783 27.4131H22.4979V27.3889L21.6502 25.5077L21.626 25.5069ZM24.7341 23.9567H25.4769L27.5758 27.0491V24.0059L27.6243 23.9574H28.698L28.7545 24.0059V29.5843L28.698 29.6328H27.9311L25.8394 26.5646V29.5843L25.7829 29.6328H24.7334L24.685 29.5843V24.0059L24.7341 23.9567ZM33.0413 23.9648H34.0908L34.1392 24.0132V26.2336H35.8992V24.0132L35.9557 23.9648H36.9971L37.0536 24.0132V29.5843L36.9971 29.6328H35.9557L35.8992 29.5843V27.3082H34.1392V29.585L34.0908 29.6335H33.0413L32.9929 29.585V24.014L33.0413 23.9648ZM37.9901 23.9406H41.5664L41.6149 23.989V24.9909L41.5664 25.0394H39.0961V26.2262H41.1547L41.2031 26.2747V27.2436L41.1547 27.3001H39.0961V28.5596H41.5664L41.6149 28.6081V29.585L41.5664 29.6335H37.9901L37.9416 29.585V23.9897L37.9901 23.9406ZM44.2951 23.9648H45.029C45.0882 23.9648 45.6426 25.0629 46.6921 27.259V29.5843L46.6356 29.6328H45.5941L45.5376 29.5843V28.487H43.7777V29.585L43.7293 29.6335H42.6798L42.6313 29.585V27.2597C43.6813 25.0636 44.2359 23.9655 44.2951 23.9655V23.9648ZM44.6503 25.5062L43.8027 27.4131H45.5222V27.3889L44.6745 25.5077L44.6503 25.5062ZM47.7423 23.956H48.816L48.8725 24.0044V28.5582H51.3832L51.4397 28.6147V29.5836L51.3832 29.632H47.7423L47.6939 29.5836V24.0052L47.7423 23.956ZM52.4577 23.9802H56.4054L56.4538 24.0286V25.0217L56.4054 25.0702H55.008V29.5843L54.9515 29.6328H53.9101L53.8617 29.5843V25.0717H52.457L52.4085 25.0232V24.0301L52.4577 23.9802ZM57.3903 23.9641H58.4398L58.4882 24.0125V26.2329H60.2482V24.0125L60.3047 23.9641H61.3461L61.4026 24.0125V29.5836L61.3461 29.632H60.3032L60.2467 29.5836V27.3082H58.4868V29.585L58.4383 29.6335H57.3888L57.3404 29.585V24.014L57.3903 23.9641Z" fill="white"/>
</svg>
