<svg width="100" height="30" viewBox="0 0 100 30" fill="none" xmlns="http://www.w3.org/2000/svg">
<g clip-path="url(#clip0_1_209)">
<path d="M63.7625 18.825C63.7625 15.9 62.3 12.8375 61.85 11.6625C61.6375 8.79998 60.9125 3.07501 59.7125 3.07501C56.825 3.07501 53.1125 5.36251 53.1125 7.87501C51.2375 6.75001 49.4675 7.50001 48.3875 8.25001C47.6875 6.07501 45.8375 1.72501 44.0375 1.72501C40.4375 1.72501 38.1875 7.16251 37.2125 11.6625C37.1281 12.0523 36.275 14.865 36.275 18.825C36.275 24.8625 43.625 28.7625 51.875 28.7625C60.875 28.7625 63.7625 21.3 63.7625 18.825Z" fill="#2E004B" stroke="#2E004B" stroke-width="1.8" stroke-linecap="round"/>
<path d="M63.7625 18.9C63.7625 15.975 62.3 12.9125 61.85 11.7375C61.6375 8.87496 60.9125 3.14999 59.7125 3.14999C58.2125 3.14999 53.1125 6.93749 53.1125 8.32499C51.9875 8.01246 49.4675 7.57499 48.3875 8.32499C47.6875 6.14999 45.8375 1.79999 44.0375 1.79999C41.7875 1.79999 38.4875 7.87499 37.5125 12.375C37.4281 12.7648 36.875 14.3775 36.875 18.3375C36.875 23.2875 43.625 28.4625 51.875 28.4625C60.125 28.4625 63.7625 21.375 63.7625 18.9Z" fill="white"/>
<path d="M47.7875 14.325C42.2375 14.325 39.675 20.15 38.4875 22.8375C33.6125 16.575 35.6375 0 49.85 0C62.675 0 64.575 16.05 64.0625 19.7625C64.0625 16.275 62.075 13.575 57.9125 14.325C55.2257 14.8091 54.825 18.2 55.9625 20.8875C55.9625 21.3375 53.7775 22.2169 52.8125 18.3C52.175 15.7125 51.5375 14.325 47.7875 14.325Z" fill="#FF9034"/>
<path d="M59.9375 2.88751C61.9522 2.88751 62.3533 8.19961 62.2985 11.6888C62.2894 12.2696 61.7271 12.67 61.169 12.5084L52.4989 9.99789C51.8623 9.81354 51.6201 9.01374 52.009 8.47711C53.7083 6.13209 55.5948 2.88751 59.9375 2.88751Z" fill="#FF9034"/>
<path opacity="0.2" d="M46.8875 28.2375C38.1735 26.0386 38.1573 17.7479 39.7149 11.0782C39.8523 10.4898 39.1566 10.0741 38.7551 10.5256C36.4182 13.1537 35.7003 15.9338 37.025 21.075C38.1123 25.2946 43.8375 27.65 46.8875 28.2375Z" fill="#6B4220"/>
<path d="M48.5375 9.18751C48.5375 9.09751 48.4125 8.37504 48.3875 8.32501L48.35 8.21251L49.0625 8.02501C49.175 8.55001 48.5375 9.27751 48.5375 9.18751ZM55.025 9.00001C54.785 8.85001 53.375 8.41254 52.7 8.21251C52.5125 7.67499 52.4 6.68251 53.45 7.01251C54.7625 7.42501 55.325 9.18751 55.025 9.00001Z" fill="#2E004B"/>
<path d="M55.0478 19.425C54.8382 19.425 54.3831 19.5956 54.0028 19.7893C53.5963 19.9965 53.4972 20.4535 53.7681 20.8207C54.2476 21.471 55.0547 22.2 55.5027 22.2C56.2608 22.2 56.6375 20.5555 56.6375 20.1958C56.6375 19.5375 55.5027 19.425 55.0478 19.425Z" fill="#2E004B"/>
<path d="M58.9236 22.5909C59.1939 22.7015 59.4066 22.907 59.5525 23.1988C59.8933 23.8805 59.5329 24.5807 59.011 25.0265C58.4709 25.4879 57.6514 25.8 56.7125 25.8H56.5842C54.9518 25.8001 53.3194 25.8002 51.6657 25.6499C51.2508 25.6454 50.7552 25.5144 50.3499 25.2577C49.9335 24.9941 49.55 24.5516 49.55 23.925L58.9236 22.5909V22.5909ZM58.9236 22.5909C58.6665 22.4858 58.4005 22.4845 58.1714 22.5128ZM58.9236 22.5909L58.1714 22.5128ZM58.1714 22.5128C57.9426 22.541 57.7116 22.6043 57.5122 22.6616ZM58.1714 22.5128L57.5122 22.6616ZM57.5122 22.6616L57.4137 22.6901ZM57.5122 22.6616L57.4137 22.6901ZM57.4137 22.6901C57.2449 22.739 57.0996 22.7812 56.9617 22.8088ZM57.4137 22.6901L56.9617 22.8088ZM56.9617 22.8088C56.1543 22.9703 55.3582 22.8724 54.506 22.7168C54.3576 22.6897 54.2066 22.6605 54.0531 22.631C53.3492 22.4951 52.5965 22.35 51.8375 22.35C51.0897 22.35 50.5146 22.4631 50.1195 22.7415M56.9617 22.8088L50.1195 22.7415ZM50.1195 22.7415C49.6857 23.0472 49.55 23.4896 49.55 23.925L50.1195 22.7415Z" fill="#2E004B"/>
<path d="M58.9236 22.5909C58.6665 22.4858 58.4005 22.4845 58.1714 22.5128M58.9236 22.5909L58.1714 22.5128M58.1714 22.5128C57.9426 22.541 57.7116 22.6043 57.5122 22.6616M58.1714 22.5128L57.5122 22.6616M57.5122 22.6616L57.4137 22.6901M57.5122 22.6616L57.4137 22.6901M57.4137 22.6901C57.2449 22.739 57.0996 22.7812 56.9617 22.8088M57.4137 22.6901L56.9617 22.8088M56.9617 22.8088C56.1543 22.9703 55.3582 22.8724 54.506 22.7168C54.3576 22.6897 54.2066 22.6605 54.0531 22.631C53.3492 22.4951 52.5965 22.35 51.8375 22.35C51.0897 22.35 50.5146 22.4631 50.1195 22.7415M56.9617 22.8088L50.1195 22.7415M58.9236 22.5909C59.1939 22.7015 59.4066 22.907 59.5525 23.1988C59.8933 23.8805 59.5329 24.5807 59.011 25.0265C58.4709 25.4879 57.6514 25.8 56.7125 25.8H56.5842C54.9518 25.8001 53.3194 25.8002 51.6657 25.6499C51.2508 25.6454 50.7552 25.5144 50.3499 25.2577C49.9335 24.9941 49.55 24.5516 49.55 23.925L58.9236 22.5909V22.5909ZM50.1195 22.7415C49.6857 23.0472 49.55 23.4896 49.55 23.925L50.1195 22.7415Z" stroke="#2E004B" stroke-width="0.9" stroke-linecap="round"/>
<path d="M51.9875 24.1125C50.7575 24.1125 49.95 24.2125 49.7 24.2625L51.2 27.7125C53.2625 26.9125 57.215 25.2975 56.525 25.2375C55.6625 25.1625 53.525 24.1125 51.9875 24.1125Z" fill="#FCA0A1"/>
<path d="M51.35 25.275C51.26 24.405 52.5375 24.2375 53.1875 24.2625C52.1675 23.2425 49.7875 23.6125 48.725 23.925C49.6375 24.7375 51.44 26.145 51.35 25.275Z" fill="#D7859B"/>
<path d="M58.9236 22.5909C58.6665 22.4858 58.4005 22.4845 58.1714 22.5128M58.9236 22.5909L58.1714 22.5128M58.1714 22.5128C57.9426 22.541 57.7116 22.6043 57.5122 22.6616M58.1714 22.5128L57.5122 22.6616M57.5122 22.6616L57.4137 22.6901M57.5122 22.6616L57.4137 22.6901M57.4137 22.6901C57.2449 22.739 57.0996 22.7812 56.9617 22.8088M57.4137 22.6901L56.9617 22.8088M56.9617 22.8088C56.1543 22.9703 55.3582 22.8724 54.506 22.7168C54.3576 22.6897 54.2066 22.6605 54.0531 22.631C53.3492 22.4951 52.5965 22.35 51.8375 22.35C51.0897 22.35 50.5146 22.4631 50.1195 22.7415M56.9617 22.8088L50.1195 22.7415M58.9236 22.5909C59.1939 22.7015 59.4066 22.907 59.5525 23.1988C59.8933 23.8805 59.5329 24.5807 59.011 25.0265C58.4709 25.4879 57.6514 25.8 56.7125 25.8H56.5842C54.9518 25.8001 53.3194 25.8002 51.6657 25.6499C51.2508 25.6454 50.7552 25.5144 50.3499 25.2577C49.9335 24.9941 49.55 24.5516 49.55 23.925L58.9236 22.5909V22.5909ZM50.1195 22.7415C49.6857 23.0472 49.55 23.4896 49.55 23.925L50.1195 22.7415Z" stroke="#2E004B" stroke-width="0.9" stroke-linecap="round"/>
<path d="M50.75 17.25C50.75 18.0747 50.6067 18.8681 50.3496 19.4669C50.0925 20.0659 49.7412 20.4249 49.3677 20.4701C48.9943 20.5154 48.6273 20.2435 48.342 19.7103C48.0566 19.1771 47.8748 18.4232 47.8338 17.6035C47.7928 16.7837 47.8958 15.9605 48.1215 15.3031C48.3474 14.6456 48.6787 14.2039 49.0476 14.0687C49.4166 13.9334 49.795 14.115 50.1051 14.576C50.4152 15.037 50.6334 15.7425 50.7149 16.5473L49.2875 17.25H50.75ZM59.5101 15.3542C58.3944 15.6619 57.4402 16.7832 56.9858 17.5998C56.6888 18.1336 57.1473 18.3761 58.0968 18.0081C59.15 17.5998 61.025 17.5998 60.8736 17.3446C60.7524 17.1404 59.6616 16.8342 59.6616 16.8342C60.7721 16.528 61.3788 15.5576 61.227 15.2521C61.1762 15.15 60.6206 15.0479 59.5101 15.3542V15.3542Z" fill="#2E004B"/>
</g>
<defs>
<clipPath id="clip0_1_209">
<rect width="30" height="30" fill="white" transform="translate(35)"/>
</clipPath>
</defs>
</svg>
