<svg width="540" height="50" viewBox="0 0 540 50" fill="none" xmlns="http://www.w3.org/2000/svg">
<path d="M57.2228 46.8676H45.9836C45.9621 46.8549 45.9237 46.8244 45.8681 46.7815C45.8428 46.764 45.8126 46.7386 45.782 46.7172C45.5633 46.5498 45.2113 46.2969 44.9672 46.1679C43.4358 45.3791 41.8663 44.6579 40.3703 43.8048C39.4134 43.2643 38.5221 42.5912 37.6641 41.8924C36.9996 41.3519 36.8794 40.5761 37.2781 39.8165C38.0882 38.2724 38.5436 36.5576 39.6929 35.1806C40.0573 34.7428 40.3017 34.1468 40.4259 33.5857C40.512 33.1527 40.4902 32.5136 40.2286 32.2136C39.6714 31.5706 39.5385 30.9011 39.6108 30.1164C39.645 29.7216 39.6235 29.3278 39.6108 28.9281C39.5209 26.3804 38.0882 24.3995 35.7125 23.902C34.4646 23.645 33.1736 23.6108 31.9091 23.8073C29.2842 24.2236 27.6981 26.2084 27.6033 28.8636C27.5818 29.4851 27.6502 30.1076 27.5779 30.7204C27.5349 31.1279 27.3981 31.5784 27.1537 31.895C26.6905 32.5087 26.5449 33.1254 26.841 33.825C27.0511 34.3187 27.227 34.867 27.5662 35.2616C28.733 36.6298 29.1395 38.3703 29.9633 39.9017C30.3318 40.5788 30.2077 41.2912 29.6204 41.7975C28.8659 42.4534 28.0851 43.1226 27.2192 43.6162C25.7181 44.4655 24.1526 45.1897 22.6046 45.9489C22.244 46.1247 21.7036 46.502 21.4124 46.7159C21.3782 46.7377 21.344 46.7631 21.3176 46.7806C21.258 46.8235 21.2189 46.8537 21.2062 46.8667H10L10.0469 46.7806L10.0811 46.7159L33.6114 3.13149L57.1419 46.7181L57.176 46.7824L57.2228 46.8685V46.8676Z" fill="white"/>
<path d="M66.8095 17.2088H70.9425L77.5292 32.7911H72.9322L71.8053 30.0285H65.8373L64.7319 32.7911H60.2228L66.8095 17.2088ZM70.5672 26.6911L68.8434 22.2925L67.0969 26.6911H70.5672Z" fill="white"/>
<path d="M80.5292 17.2641H84.5298L90.8956 25.4417V17.2641H95.14V32.7359H91.3823L84.7733 24.2485V32.7359H80.5292V17.2641Z" fill="white"/>
<path d="M104.019 26.9447L98.14 17.2641H103.024L106.207 22.8999L109.412 17.2641H114.208L108.329 26.8783V32.7359H104.019V26.9447Z" fill="white"/>
<path d="M117.208 17.2641H125.143C127.088 17.2641 128.459 17.7507 129.365 18.6567C129.984 19.2752 130.36 20.0932 130.36 21.1545V21.1985C130.36 22.9888 129.343 24.0501 127.972 24.6462C129.851 25.2649 131.045 26.3262 131.045 28.4263V28.4702C131.045 31.1225 128.878 32.7359 125.187 32.7359H117.208V17.2641ZM124.082 23.4305C125.386 23.4305 126.116 22.9888 126.116 22.0819V22.038C126.116 21.1985 125.452 20.7118 124.171 20.7118H121.386V23.4305H124.082ZM124.7 29.2882C126.004 29.2882 126.756 28.78 126.756 27.8731V27.8292C126.756 26.9897 126.092 26.4366 124.656 26.4366H121.385V29.2882H124.7Z" fill="white"/>
<path d="M134.045 25.0445V25.0005C134.045 20.5579 137.626 16.9548 142.4 16.9548C147.173 16.9548 150.71 20.5129 150.71 24.9555V24.9995C150.71 29.4421 147.129 33.0452 142.355 33.0452C137.581 33.0452 134.045 29.4871 134.045 25.0445ZM146.334 25.0445V25.0005C146.334 22.7684 144.72 20.8227 142.355 20.8227C140.013 20.8227 138.443 22.7235 138.443 24.9555V24.9995C138.443 27.2316 140.057 29.1773 142.4 29.1773C144.765 29.1773 146.335 27.2765 146.335 25.0445H146.334Z" fill="white"/>
<path d="M153.71 17.2641H159.678C165.204 17.2641 168.409 20.447 168.409 24.912V24.956C168.409 29.4211 165.16 32.7359 159.591 32.7359H153.711V17.2641H153.71ZM159.745 28.9344C162.309 28.9344 164.01 27.5194 164.01 25.0225V24.9785C164.01 22.5031 162.308 21.0666 159.745 21.0666H157.998V28.9354H159.745V28.9344Z" fill="white"/>
<path d="M171.409 17.2641H175.719V32.7359H171.409V17.2641Z" fill="white"/>
<path d="M178.719 17.2641H191.163V20.9112H182.963V23.2536H190.389V26.6349H182.963V29.0888H191.274V32.7359H178.719V17.2641Z" fill="white"/>
<path d="M194.274 30.437L196.661 27.5854C198.186 28.8011 199.888 29.4421 201.678 29.4421C202.827 29.4421 203.446 29.0444 203.446 28.3808V28.3369C203.446 27.6958 202.938 27.342 200.838 26.8563C197.544 26.1048 195.003 25.1764 195.003 21.9935V21.9495C195.003 19.0764 197.279 16.9987 200.992 16.9987C203.622 16.9987 205.678 17.7063 207.358 19.0539L205.214 22.0824C203.799 21.0876 202.252 20.5569 200.882 20.5569C199.843 20.5569 199.335 20.9986 199.335 21.5518V21.5957C199.335 22.3033 199.865 22.6121 202.009 23.0988C205.568 23.8728 207.778 25.022 207.778 27.9176V27.9616C207.778 31.122 205.28 33.0013 201.523 33.0013C198.781 33.0013 196.174 32.1393 194.274 30.437Z" fill="white"/>
</svg>
