<svg width="16" height="17" viewBox="0 0 16 17" fill="none" xmlns="http://www.w3.org/2000/svg">
<path d="M14.9118 4.6032C14.3913 4.83421 13.839 4.98558 13.2735 5.05221C13.8694 4.69598 14.3152 4.13498 14.5277 3.47403C13.9678 3.80647 13.3552 4.04071 12.7164 4.1666C12.4495 3.88184 12.1271 3.65494 11.7689 3.49998C11.4108 3.34501 11.0246 3.26529 10.6344 3.26575C9.05933 3.26575 7.78227 4.5428 7.78227 6.11816C7.78227 6.3414 7.80739 6.559 7.85621 6.76812C5.48555 6.64902 3.38356 5.51365 1.97669 3.78786C1.72294 4.22319 1.58968 4.71823 1.59061 5.22211C1.59061 6.21158 2.09409 7.08477 2.85948 7.59616C2.40652 7.58179 1.96354 7.45939 1.56747 7.23915L1.56718 7.27527C1.56718 8.65703 2.55044 9.80963 3.85544 10.0721C3.43524 10.1858 2.99466 10.2024 2.5671 10.1206C2.93032 11.2538 3.98357 12.0787 5.23155 12.1015C4.22125 12.8946 2.97351 13.3248 1.6891 13.3227C1.45909 13.3227 1.2319 13.3092 1.00867 13.2826C2.31283 14.1209 3.83081 14.5658 5.38113 14.5642C10.6279 14.5642 13.4967 10.218 13.4967 6.44865C13.4967 6.32503 13.4942 6.2017 13.4888 6.07922C14.0473 5.67599 14.5292 5.17611 14.9118 4.6032Z" fill="#111111"/>
</svg>
