<svg width="70" height="47" viewBox="0 0 70 47" fill="none" xmlns="http://www.w3.org/2000/svg">
<path fill-rule="evenodd" clip-rule="evenodd" d="M17.5143 18.8066V14.1365C18.9825 16.3025 20.8027 18.7635 23.2494 18.7201C24.9549 18.6843 26.617 17.0075 26.6963 15.4246C26.8186 12.9851 23.7389 12.3522 21.8753 11.395C19.5222 10.1786 17.4642 7.96969 17.5147 5.53768C17.5797 2.5154 20.6091 -0.197404 24.804 0.0113043C26.3438 0.0905655 27.7255 0.586843 28.8049 1.44318V5.53768C27.8191 3.78199 26.0343 2.44331 24.1348 2.17725C22.8324 1.99722 20.9903 2.75996 20.9039 4.43679C20.8031 6.27175 23.3072 7.39415 25.0991 8.1067C27.7689 9.17135 30.7191 10.5746 30.5677 14.5324C30.4526 17.677 27.8836 20.5264 23.343 20.6057C20.9684 20.6487 19.4572 19.8501 17.5143 18.8066ZM54.047 20.397H49.7227C50.5503 19.7422 51.0972 19.0444 51.4784 18.1808L59.1058 0.810289C59.3718 0.205674 59.9115 0.212843 60.1919 0.810289L68.2949 18.3824C68.6334 19.1164 69.2807 19.9079 70 20.3974H63.4305C64.0279 19.7569 64.1789 19.2678 63.9049 18.656L62.3077 15.051H55.0324L53.7084 18.2458C53.4284 18.9145 53.7236 19.9437 54.047 20.397ZM32.0355 0.810289H41.7348C48.2832 0.810289 52.0252 5.4154 51.9818 10.0062C51.932 15.6983 46.6498 20.397 41.8005 20.397H32.0932C32.8416 19.6629 33.1798 19.0081 33.1798 18.188V2.65242C33.1794 1.92552 32.8269 1.42168 32.0355 0.810289ZM0 0.810289H5.36825C4.89348 1.38583 4.72062 1.70965 4.72062 2.52257V14.8419C4.72062 17.4396 7.00884 18.5262 9.29706 18.3103C11.5853 18.1016 13.8735 16.5976 13.8735 14.0214V2.22783C13.8735 1.69531 13.6361 1.23487 13.1466 0.810289H16.5648C15.9315 1.13411 15.7371 1.60171 15.7371 2.11272V14.4317C15.7371 18.6628 11.9525 20.7208 8.16032 20.6993C4.3753 20.6706 0.590277 18.5548 0.590277 14.4317V2.17008C0.589879 1.68097 0.438924 1.23487 0 0.810289ZM23.1702 25.4195C24.228 25.7509 24.2639 26.3189 23.1702 26.2185C18.2771 25.7796 6.12343 24.7002 1.73419 25.4773C1.35262 25.5418 0.705385 25.3402 0.705385 24.9591V23.477C0.705385 22.9588 1.28132 22.4044 1.79194 22.3829C6.57709 22.2391 18.565 23.9805 23.1702 25.4195ZM16.3485 26.9091C17.4566 26.9956 17.4494 27.6575 16.3485 27.7081C11.4196 27.9308 6.00115 28.9241 1.73419 29.9454C1.36019 30.0318 0.705385 29.8163 0.705385 29.4272V27.9383C0.705385 27.4273 1.28132 26.902 1.79194 26.8514C6.57709 26.3551 11.5132 26.5061 16.3485 26.9091Z" fill="white"/>
<path fill-rule="evenodd" clip-rule="evenodd" d="M68.9995 22.1455V25.3618C45.5776 26.2181 26.4728 26.0962 1.82022 34.7381C0.978216 35.0328 0.633291 34.4641 1.42431 34.0542C21.5511 23.6993 49.0169 22.6995 68.9995 22.1455Z" fill="white"/>
<path fill-rule="evenodd" clip-rule="evenodd" d="M67.0502 46.6543H2.40331C0.884996 46.6543 0.741211 45.3372 0.741211 44.4091V38.1554C0.741211 37.0478 1.20164 36.5224 3.18795 35.911C25.3078 29.0894 47.2405 27.1035 69.101 27.3118V44.6107C69.1006 45.6968 68.5251 46.6543 67.0502 46.6543Z" fill="white"/>
<path fill-rule="evenodd" clip-rule="evenodd" d="M61.2936 12.7696L58.5513 6.5809L55.9827 12.7696H61.2936ZM36.8564 2.63098H40.526C45.0311 2.63098 47.305 6.51677 47.3189 10.4026C47.3269 14.2884 45.0817 18.1737 40.526 18.1737H36.8564V2.63098Z" fill="black"/>
</svg>
