<svg width="16" height="17" viewBox="0 0 16 17" fill="none" xmlns="http://www.w3.org/2000/svg">
<path d="M15.5333 5.21827C15.5333 5.08494 15.3333 4.01827 14.8667 3.5516C14.2667 2.88494 13.6 2.81827 13.2667 2.81827H13.2C11.1333 2.68494 8.06666 2.68494 8 2.68494C8 2.68494 4.86666 2.68494 2.79999 2.81827H2.73333C2.39999 2.81827 1.73333 2.88494 1.13333 3.5516C0.666662 4.08494 0.466662 5.1516 0.466662 5.28494C0.466662 5.3516 0.333328 6.5516 0.333328 7.81827V8.9516C0.333328 10.2183 0.466662 11.4183 0.466662 11.4849C0.466662 11.6183 0.666662 12.6849 1.13333 13.1516C1.66666 13.7516 2.33333 13.8183 2.73333 13.8849H2.93333C4.13333 14.0183 7.79999 14.0183 7.93333 14.0183C7.93333 14.0183 11.0667 14.0183 13.1333 13.8849H13.2C13.5333 13.8183 14.2 13.7516 14.8 13.1516C15.2667 12.6183 15.4667 11.5516 15.4667 11.4183C15.4667 11.3516 15.6 10.1516 15.6 8.88494V7.7516C15.6667 6.5516 15.5333 5.28494 15.5333 5.21827ZM10.6 8.48494L6.59999 10.6183C6.53333 10.6183 6.53333 10.6849 6.46666 10.6849C6.39999 10.6849 6.33333 10.6849 6.33333 10.6183C6.26666 10.5516 6.2 10.4849 6.2 10.3516V6.01827C6.2 5.88494 6.26666 5.81827 6.33333 5.7516C6.4 5.68494 6.53333 5.68494 6.66666 5.7516L10.6667 7.88494C10.8 7.9516 10.8667 8.01827 10.8667 8.1516C10.8667 8.28494 10.7333 8.41827 10.6 8.48494Z" fill="#111111"/>
</svg>
